<svg width="623" height="291" viewBox="0 0 623 291" fill="none" xmlns="http://www.w3.org/2000/svg">
<path d="M659.215 126.803C638.441 95.5208 604.313 73.4672 567.29 67.3892C530.267 61.3112 490.89 71.3064 461.233 94.2941C432.55 116.529 413.934 149.038 389.442 175.831C373.555 193.215 353.365 205.636 334.889 219.674C314.88 234.869 289.413 242.954 264.295 241.49C238.661 239.999 214.615 229.32 190.221 221.277C162.498 212.132 133.69 206.249 104.603 203.809C89.5935 202.555 74.2077 202.234 59.7827 206.57C29.5403 215.659 8.08374 244.599 1.26111 275.477C-0.0338135 281.332 -0.84137 287.619 1.44214 293.153C3.71167 298.66 8.66858 302.549 13.6812 305.741C42.6426 324.184 78.4266 325.118 111.05 317.563C131.351 312.865 152.292 317.214 173.08 318.023C221.438 319.905 269.837 317.047 318.013 312.99C414.546 304.863 511.512 291.452 608.518 299.956C621.078 301.057 636.38 301.28 643.119 290.616C645.834 286.308 646.475 281.053 647.004 275.979C651.585 232.833 654.272 189.479 655.038 146.096" fill="#E9F9E6"/>
<path d="M341.085 156.998C329.097 160.441 335.446 185.283 336.226 193.87C336.894 201.188 338.022 208.479 339.609 215.645C339.957 217.234 344.343 232.568 345.318 235.635C345.415 235.984 345.499 236.179 345.513 236.179C345.819 236.025 346.139 235.872 346.46 235.719C363.92 227.104 381.854 219.562 399.453 211.463C403.171 209.748 407.975 207.671 410.119 203.977C412.375 200.087 412.876 194.874 407.432 194.037C404.132 193.535 400.776 194.232 397.49 194.915C398.451 193.173 404.341 191.249 406.165 190.273C409.465 188.503 412.973 186.9 416.162 184.92C421.3 181.714 426.939 179.246 432.091 175.929C436.839 172.876 447.365 163.996 443.411 157.29C441.002 153.22 434.026 154.447 430.1 154.725C423.569 155.199 417.29 157.346 411.149 159.451C418.292 155.534 425.463 151.575 431.868 146.57C438.287 141.552 443.968 135.362 447.309 127.918C448.911 124.391 449.718 119.693 446.864 117.072C444.427 114.828 440.598 115.358 437.424 116.292C428.345 118.982 419.963 123.931 413.252 130.595C424.99 117.811 437.117 104.359 441.754 87.6305C442.325 85.5952 442.756 83.4623 442.45 81.3573C442.144 79.2662 440.96 77.1891 439.025 76.3388C435.892 74.9587 432.397 77.1334 429.835 79.4057C417.638 90.1955 411.219 104.582 402.823 118.118C404.661 110.66 405.622 102.965 405.65 95.2698C405.677 88.7596 404.814 81.7197 400.358 76.98C399.815 76.4085 399.161 75.8369 398.367 75.7254C397.156 75.5581 396.084 76.4921 395.276 77.4122C389.818 83.532 387.326 91.7289 385.544 99.7307C383.483 108.931 382.132 118.285 381.547 127.695C381.84 122.398 381.979 117.449 380.253 111.845C378.874 107.412 376.117 99.5634 370.102 101.167C368.501 101.585 367.178 102.658 366.092 104.122C362.695 108.666 361.469 116.961 360.523 121.213C358.587 129.8 357.78 138.582 357.111 147.351C356.763 151.895 356.485 156.44 356.109 160.985C355.816 164.609 354.299 169.614 354.842 173.154C354.215 169.168 353.561 165.055 351.347 161.682C349.161 158.308 344.956 155.868 341.099 156.998H341.085Z" fill="#264F21"/>
<path d="M371.703 185.771C371.703 185.882 371.745 185.994 371.801 186.091C365.772 196.56 359.617 207.322 353.992 218.266C352.224 201.816 349.383 185.338 345.513 169.265C345.443 168.986 345.164 168.805 344.858 168.875C344.58 168.945 344.399 169.223 344.468 169.53C348.45 186.077 351.361 203.057 353.101 219.994C350.455 225.166 347.852 230.394 345.304 235.649C345.401 235.998 345.485 236.193 345.499 236.193C345.805 236.039 346.125 235.886 346.445 235.733C348.84 230.798 351.305 225.877 353.783 221.012C353.867 221.012 353.95 220.984 354.006 220.942C367.623 211.435 383.469 204.869 399.815 201.997C400.122 201.955 400.303 201.663 400.261 201.37C400.205 201.077 399.941 200.882 399.634 200.924C383.664 203.754 368.18 210.041 354.744 219.158C360.634 207.671 367.122 196.351 373.458 185.366C379.918 179.33 388.704 176.221 397.894 173.322C407.807 170.199 417.54 167.341 427.607 166.421C427.899 166.393 428.108 166.129 428.094 165.836C428.067 165.543 427.802 165.334 427.51 165.348C417.331 166.268 407.543 169.168 397.574 172.29C389.303 174.897 381.352 177.685 375.045 182.606C377.927 177.574 380.865 172.471 383.761 167.3C400.038 151.449 418.459 137.997 438.523 127.319C438.774 127.179 438.871 126.859 438.732 126.608C438.593 126.329 438.273 126.231 438.008 126.371C418.877 136.561 401.249 149.261 385.516 164.149C387.061 161.375 388.579 158.601 390.069 155.813C400.651 136.017 413.753 112.974 430.67 92.203C430.851 91.9799 430.823 91.6314 430.601 91.4502C430.364 91.269 430.03 91.2969 429.849 91.5199C412.862 112.375 399.746 135.46 389.136 155.311C388.008 157.416 386.866 159.521 385.71 161.626C390.027 148.132 400.205 112.946 396.696 90.6277C396.655 90.3489 396.376 90.1398 396.098 90.1816C395.791 90.2234 395.596 90.5022 395.652 90.795C399.913 117.909 383.705 164.4 382.912 166.658C379.737 172.332 376.493 177.978 373.304 183.498C373.151 183.791 372.97 184.07 372.817 184.363C373.318 163.675 373.708 142.346 367.651 122.105C367.568 121.812 367.261 121.645 366.983 121.743C366.691 121.826 366.537 122.133 366.621 122.412C372.761 142.974 372.232 164.735 371.717 185.798L371.703 185.771Z" fill="#95BC8F"/>
<path d="M466.44 96.4686C467.888 96.9426 468.765 98.3227 468.682 99.7725C471.425 100.051 474.237 99.3961 476.437 98.6293C477.816 98.1554 479.194 97.5838 480.517 97.0262C482.522 96.1898 484.583 95.3534 486.727 94.7818C486.128 94.6006 485.515 94.4055 484.917 94.2242C482.536 93.5272 480.071 92.8023 477.774 91.7428C475.1 90.5022 472.942 88.8572 471.425 86.9752C470.687 87.3377 469.809 87.4213 468.974 87.1425C467.247 86.5849 466.315 84.7169 466.871 82.9883C467.428 81.2597 469.294 80.3257 471.021 80.8833C472.747 81.4409 473.68 83.3089 473.123 85.0375C472.97 85.5254 472.692 85.9437 472.357 86.2922C473.764 88.0347 475.755 89.5403 478.261 90.6973C479.793 91.4083 481.408 91.9519 483.037 92.4538C482.48 89.0942 480.712 86.0133 478.874 83.2253C478.484 83.2392 478.094 83.1974 477.704 83.072C475.978 82.5143 475.045 80.6463 475.602 78.9317C476.159 77.2031 478.024 76.269 479.751 76.8267C481.478 77.3843 482.41 79.2523 481.853 80.9809C481.547 81.901 480.879 82.584 480.071 82.9465C481.993 85.8879 483.817 89.1639 484.276 92.8302C484.596 92.9278 484.931 93.0253 485.251 93.1229C486.462 93.4714 487.66 93.8339 488.857 94.2242C492.352 95.3952 494.984 96.7753 496.961 98.49C496.738 98.0021 496.515 97.5141 496.292 97.0402C493.508 91.0319 490.653 84.8284 488.523 78.5134C488.133 78.5274 487.729 78.4856 487.339 78.3601C485.613 77.8025 484.68 75.9345 485.237 74.2059C485.794 72.4773 487.66 71.5433 489.386 72.1009C491.113 72.6585 492.046 74.5265 491.489 76.2551C491.182 77.1891 490.486 77.8861 489.651 78.2486C491.767 84.4799 494.594 90.5997 497.351 96.5522C499.815 101.877 502.307 107.286 504.34 112.862C504.173 109.001 504.591 104.847 505.649 100.414C506.025 98.8524 506.512 97.3329 507.069 95.8552C506.582 93.8199 505.162 89.2475 501.834 85.3163C501.04 85.8182 500.052 85.9715 499.091 85.6648C497.365 85.1072 496.432 83.2392 496.989 81.5106C497.546 79.782 499.411 78.848 501.138 79.4056C502.864 79.9632 503.797 81.8312 503.24 83.5598C503.129 83.9223 502.934 84.2429 502.725 84.5217C505.552 87.8535 507.055 91.6174 507.807 94.0848C508.573 92.2586 509.409 90.4743 510.244 88.7317C511.01 87.1286 511.776 85.4975 512.486 83.8247C512.096 81.9009 511.066 80.2002 509.952 78.4158C509.534 77.7328 509.116 77.0636 508.726 76.3666C507.877 74.8332 507.223 73.2022 506.735 71.5293C506.331 71.5572 505.9 71.5154 505.496 71.376C503.769 70.8184 502.837 68.9503 503.394 67.2217C503.95 65.4931 505.816 64.5592 507.543 65.1168C509.269 65.6744 510.202 67.5424 509.645 69.271C509.353 70.191 508.685 70.8741 507.863 71.2366C508.323 72.8118 508.935 74.3453 509.743 75.7951C510.119 76.4642 510.522 77.1334 510.94 77.7885C511.79 79.1547 512.639 80.5487 513.196 82.0682C513.711 80.716 514.184 79.3498 514.546 77.9419C515.284 75.098 515.841 71.0275 514.741 66.9011C514.477 66.8872 514.198 66.8454 513.934 66.7617C512.207 66.2041 511.274 64.3361 511.831 62.6075C512.388 60.8789 514.254 59.9449 515.967 60.5025C517.679 61.0601 518.626 62.9281 518.069 64.6567C517.721 65.7162 516.886 66.4829 515.883 66.7896C516.969 71.0972 516.412 75.2932 515.646 78.2486C515.131 80.2281 514.435 82.1379 513.655 83.992C513.641 84.0896 513.6 84.1732 513.544 84.2429C513.224 85.0097 512.876 85.7764 512.528 86.5291C513.015 86.2364 513.516 85.9994 513.962 85.8182C514.895 85.4558 515.869 85.2188 516.816 84.9818C517.387 84.8424 517.972 84.703 518.529 84.5357C518.765 84.466 518.988 84.3823 519.211 84.2987C518.208 80.9809 518.905 77.9419 519.643 75.6417C519.67 75.5441 519.726 75.3768 519.837 75.1956C518.974 74.3453 518.598 73.0628 519.002 71.8221C519.559 70.0935 521.425 69.1595 523.151 69.7171C524.878 70.2747 525.811 72.1427 525.254 73.8574C524.697 75.586 522.831 76.52 521.118 75.9624C521.007 75.9345 520.924 75.8787 520.826 75.8369C520.812 75.8648 520.798 75.9066 520.77 75.9902C519.754 79.1547 519.615 81.5246 520.311 83.8805C522.399 82.9883 524.307 81.6918 525.894 80.0747C525.685 79.4335 525.658 78.7225 525.894 78.0395C526.451 76.3109 528.317 75.3768 530.044 75.9345C531.77 76.4921 532.703 78.3601 532.146 80.0887C531.589 81.8173 529.723 82.7513 527.997 82.1937C527.37 81.9846 526.869 81.6221 526.479 81.1482C524.349 83.2253 521.731 84.7866 518.877 85.6509C518.292 85.8321 517.693 85.9715 517.108 86.1109C516.162 86.3479 515.27 86.557 514.407 86.8916C513.307 87.3237 511.859 88.1183 511.205 89.5263C511.163 89.6099 511.107 89.6657 511.052 89.7215C509.617 92.7605 508.169 95.8831 507.209 99.2009C507.487 98.8663 507.793 98.5597 508.114 98.2669C509.381 97.1656 510.912 96.4407 512.374 95.7437C512.806 95.5346 513.238 95.3255 513.655 95.1164C513.015 94.28 512.792 93.1648 513.14 92.0914C513.697 90.3628 515.563 89.4287 517.289 89.9864C519.016 90.544 519.949 92.4119 519.392 94.1405C518.835 95.8691 516.969 96.8032 515.243 96.2456C515.006 96.1619 514.783 96.0643 514.574 95.9389C514.003 96.2316 513.433 96.5104 512.862 96.7892C511.4 97.4863 510.007 98.1275 508.866 99.1312C507.223 100.567 506.192 102.728 506.095 104.902C506.095 105.042 506.025 105.153 505.942 105.251C505.037 111.454 505.482 117.045 507.306 121.882C507.376 122.049 507.348 122.216 507.264 122.37C508.016 125.618 508.545 128.922 508.74 132.309C508.754 132.63 508.517 132.895 508.197 132.923C508.128 132.923 508.058 132.923 507.988 132.895C507.766 132.825 507.612 132.63 507.598 132.379C506.972 121.422 502.823 111.217 498.339 101.348C497.838 103.271 497.253 105.167 496.543 107.021C497.727 107.816 498.297 109.336 497.838 110.757C497.281 112.486 495.415 113.42 493.703 112.862C493.619 112.835 493.563 112.793 493.48 112.765H493.452C493.424 112.765 493.396 112.737 493.368 112.737C493.368 112.737 493.341 112.723 493.341 112.709C491.865 112.012 491.085 110.325 491.614 108.722C492.157 107.077 493.856 106.157 495.513 106.561C496.265 104.568 496.905 102.533 497.406 100.469C495.554 98.4202 492.895 96.831 489.094 95.5067C488.857 96.0643 488.801 96.7474 488.787 97.4026C488.774 98.1275 488.774 98.8524 488.76 99.5912C488.76 101.278 488.76 103.021 488.537 104.749C488.425 105.6 488.272 106.394 488.077 107.147C489.149 107.969 489.651 109.405 489.205 110.771C488.648 112.5 486.782 113.434 485.056 112.876C483.329 112.319 482.396 110.451 482.953 108.722C483.51 107.021 485.32 106.087 487.019 106.603C487.172 105.976 487.298 105.307 487.395 104.61C487.604 102.951 487.604 101.25 487.604 99.5912C487.604 98.8524 487.604 98.1136 487.632 97.3747C487.632 96.831 487.688 96.2734 487.813 95.7298C485.488 96.2595 483.232 97.1796 481.046 98.0857C479.695 98.6433 478.303 99.2288 476.897 99.7167C473.806 100.79 470.965 101.18 468.487 100.902C467.818 102.435 466.092 103.244 464.477 102.714C462.75 102.156 461.817 100.288 462.374 98.5597C462.931 96.8311 464.797 95.897 466.509 96.4546L466.44 96.4686Z" fill="#95BC8F"/>
<path d="M473.613 151.254C472.332 158.629 472.652 165.181 472.68 172.597C474.156 170.631 475.019 168.359 476.537 166.463C478.291 164.247 480.352 162.295 482.078 160.037C485.476 155.548 488.302 150.599 490.265 145.302C493.663 136.143 494.443 125.911 491.686 116.543C484.167 127.305 476.495 138.443 473.613 151.254Z" fill="#6F9969"/>
<path d="M460.271 180.167C460.369 180.417 460.452 180.668 460.55 180.919C462.805 186.844 465.395 192.908 465.089 199.251C466.746 194.72 468.653 190.887 469.196 186.063C469.753 181.073 469.879 176.026 469.043 171.063C468.305 166.658 466.955 162.351 465.033 158.308C464.309 156.775 458.071 148.912 458.308 147.978C455.621 158.838 456.428 169.656 460.271 180.167Z" fill="#6F9969"/>
<path d="M481.088 175.259C487.827 169.363 496.418 165.278 501.305 157.778C497.866 170.213 489.971 181.895 478.303 187.374C471.731 190.454 466.969 193.8 463.641 200.589C467.108 191.165 473.513 181.895 481.088 175.259Z" fill="#6F9969"/>
<path d="M491.461 185.561C491.169 188.586 489.191 192.183 488.036 194.985C486.657 198.317 485.975 202.011 483.817 204.966C481.38 208.312 477.454 210.138 473.833 212.132C463.516 217.805 452.669 225.04 448.255 236.667C457.069 215.617 472.775 198.414 491.461 185.561Z" fill="#6F9969"/>
<path d="M443.633 188.084C439.358 196.616 438.133 206.569 439.887 215.937C440.611 219.813 441.628 223.646 442.407 227.494C442.853 229.724 443.897 231.857 444.719 233.962C445.22 235.245 447.559 239.162 447.239 240.417C450.051 231.397 450.943 221.959 450.149 212.55C449.801 208.409 448.84 204.395 447.684 200.394C447.114 198.414 442.853 189.66 443.633 188.084Z" fill="#6F9969"/>
<path d="M510.815 193.201C509.214 199.223 508.936 205.608 506.708 211.421C504.786 216.453 501.361 220.886 497.073 224.12C494.901 225.765 493.118 226.281 490.64 227.006C487.465 227.954 484.778 229.808 481.91 231.369C489.749 217.527 502.155 206.514 510.815 193.187V193.201Z" fill="#6F9969"/>
<path d="M475.13 168.011C472.554 178.41 469.964 188.879 465.494 198.651C463.197 203.67 460.426 208.452 458.031 213.414C455.734 218.182 453.785 223.103 452.072 228.107C448.549 238.354 445.235 248.878 444.581 259.752C443.94 270.361 445.013 280.969 444.651 291.578C444.289 302.312 442.451 313.283 436.477 322.414C435.837 323.404 434.347 322.33 434.987 321.34C446.363 303.929 441.949 281.889 442.618 262.359C442.799 256.908 443.383 251.485 444.72 246.188C446.029 241.002 447.602 235.844 449.245 230.756C450.874 225.724 452.698 220.747 454.843 215.924C457.029 211.017 459.66 206.347 462.069 201.551C467.499 190.733 470.521 179.065 473.417 167.355C473.696 166.212 475.408 166.881 475.13 168.011Z" fill="#6F9969"/>
<path d="M442.38 266.708C439.651 262.317 436.128 258.483 432.981 254.399C431.352 252.28 429.793 250.077 428.442 247.763C426.966 245.226 425.769 242.522 424.655 239.803C420.074 228.679 417.944 216.816 415.966 205.008C414.866 198.414 413.78 191.807 412.235 185.283C411.956 184.126 413.78 183.819 414.045 184.962C416.774 196.505 418.069 208.326 420.575 219.924C423.026 231.258 426.604 242.814 433.622 252.196C437.061 256.797 441.001 261.034 444.051 265.928C444.677 266.931 442.992 267.684 442.38 266.694V266.708Z" fill="#6F9969"/>
<path d="M443.147 283.116C444.121 278.042 445.11 272.898 447.129 268.116C449.203 263.223 452.545 259.278 455.984 255.319C459.396 251.388 462.835 247.47 466.678 243.957C470.674 240.305 475.297 237.461 479.39 233.948C483.651 230.296 487.215 225.849 489.875 220.9C490.432 219.869 492.144 220.51 491.587 221.555C489.29 225.835 486.422 229.724 482.969 233.14C479.209 236.862 474.712 239.636 470.632 242.954C466.566 246.258 462.988 250.091 459.535 254.022C456.096 257.94 452.336 261.843 449.913 266.485C447.198 271.713 446.071 277.568 444.971 283.297C444.748 284.454 442.924 284.287 443.147 283.116Z" fill="#6F9969"/>
<path d="M494.705 238.479C492.658 240.793 490.625 243.107 488.579 245.421C486.058 248.279 483.329 251.262 479.667 252.294C478.094 252.74 476.451 252.782 474.808 252.768C472.302 252.74 469.712 252.015 467.289 252.001C464.504 252.001 461.33 253.395 458.643 254.106C461.274 253.409 463.669 248.056 465.841 246.369C467.749 244.878 470.227 244.418 472.455 243.581C479.667 240.835 486.977 238.925 494.705 238.479Z" fill="#6F9969"/>
<path d="M457.725 238.786C455.747 242.089 453.339 245.909 452.698 249.729C452.141 253.033 453.52 258.274 452.183 261.299C455.079 254.775 458.685 248.572 462.918 242.814C465.257 239.622 467.889 236.402 469.24 232.638C469.894 230.812 470.061 228.999 470.2 227.09C470.256 226.323 469.936 222.671 470.298 222.294C465.522 227.313 461.303 232.847 457.725 238.786Z" fill="#6F9969"/>
<path d="M409.394 156.51C410.215 157.583 408.363 165.947 408.349 167.732C408.336 171.691 408.684 175.65 409.394 179.553C410.744 187.011 413.835 193.828 415.102 201.328C415.91 189.967 421.131 179.734 416.704 168.248C415.047 163.926 412.192 160.19 409.394 156.51Z" fill="#6F9969"/>
<path d="M432.634 204.367C431.91 208.41 430.503 213.47 427.621 216.551C424.697 219.687 422.428 221.597 420.617 225.835C419.963 210.082 425.324 194.776 430.629 179.929C430.086 181.435 431.436 183.289 431.854 184.586C432.481 186.523 432.745 188.545 432.954 190.594C433.427 195.18 433.455 199.822 432.634 204.381V204.367Z" fill="#6F9969"/>
<path d="M398.519 205.022C400.565 212.55 404.172 219.632 408.961 225.765C411.384 228.86 414.141 231.537 417.023 234.199C418.249 235.342 419.042 236.681 420.421 237.671C421.34 238.326 422.287 238.939 423.261 239.525C423.693 239.789 425.809 240.64 425.935 241.044C422.481 229.697 416.285 220.273 407.82 211.965C405.035 209.232 402.153 206.43 398.533 205.022H398.519Z" fill="#6F9969"/>
<path d="M302.502 315.039C324.863 320.908 347.336 326.317 365.911 339.7C366.677 323.655 377.259 309.324 384.569 295.509C392.032 281.36 399.133 266.862 403.059 251.276C405.426 241.922 406.109 230.659 399.175 223.953C395.415 220.329 389.776 218.781 384.694 219.994C379.626 221.207 375.281 225.138 373.569 230.073C375.1 220.858 377.746 211.323 377.05 201.969C376.911 200.032 376.604 197.968 375.351 196.491C373.527 194.344 370.157 194.135 367.554 195.236C364.964 196.337 362.959 198.456 361.037 200.52C367.136 189.771 370.923 176.891 367.568 164.986C365.02 155.952 355.719 145.358 345.485 145.692C334.262 146.055 325.225 155.213 321.146 165.013C319.712 146.738 310.049 129.256 295.331 118.355C289.636 114.131 282.076 110.799 275.601 113.699C269.461 116.459 266.801 123.708 265.813 130.372C263.39 146.682 267.414 163.856 276.826 177.379C271.884 172.792 257.138 165.404 253.643 174.786C252.53 177.755 252.933 181.087 253.727 184.154C257.598 199.209 269.767 210.459 281.366 220.803C278.525 219.102 275.545 217.373 272.246 217.136C268.946 216.899 265.242 218.67 264.448 221.89C263.989 223.73 264.532 225.654 265.144 227.452C269.168 239.134 276.687 249.589 286.476 257.117C281.421 253.228 265.131 245.561 264.852 256.671C264.615 266.151 274.028 277.707 281.045 282.963C277.411 282.266 273.652 281.555 270.018 282.28C255.189 285.235 265.075 299.05 272.134 304.473C280.363 310.802 292.686 312.46 302.488 315.025L302.502 315.039Z" fill="#528C4D"/>
<path d="M265.826 188.656C286.321 198.847 305.077 212.41 321.145 228.721C324.152 231.774 327.048 234.924 329.861 238.158C324.848 226.309 319.585 214.557 314.169 202.889C308.892 191.528 303.475 180.25 298.017 168.986C297.753 169.028 297.446 168.958 297.182 168.708C288.674 161.096 281.17 152.411 274.918 142.848C274.096 141.58 275.962 140.158 276.784 141.426C282.186 149.679 288.507 157.29 295.636 164.093C293.854 160.427 292.058 156.761 290.262 153.094C289.593 151.728 291.779 150.85 292.434 152.202C297.934 163.452 303.434 174.716 308.822 186.021C306.636 170.366 302.696 155.004 297.057 140.213C296.514 138.805 298.686 137.913 299.229 139.321C305.787 156.51 310.089 174.493 312.025 192.796C317.524 204.465 322.899 216.202 328.051 228.024C329.374 219.311 331.086 210.668 333.189 202.123C333.412 194.274 332.005 186.44 329.081 179.149C328.524 177.741 330.696 176.849 331.253 178.257C333.328 183.415 334.637 188.823 335.208 194.302C338.187 183.456 341.78 172.764 345.985 162.323C346.556 160.915 348.7 161.849 348.143 163.257C343.005 176.026 338.8 189.144 335.514 202.499C335.514 202.764 335.514 203.029 335.514 203.294C335.5 203.656 335.347 203.921 335.124 204.074C333.579 210.487 332.284 216.969 331.184 223.479C336.433 212.871 344.564 203.851 352.515 195.152C353.531 194.037 355.383 195.487 354.367 196.602C344.773 207.085 334.929 217.987 330.306 231.704C330.223 231.969 330.07 232.122 329.903 232.234C331.351 235.579 332.771 238.939 334.177 242.313C342.239 261.676 349.577 281.373 355.745 301.434C356.957 295.356 358.697 289.431 360.8 283.618C362.958 271.713 363.194 259.571 361.51 247.596C361.301 246.09 363.626 245.812 363.835 247.317C365.102 256.337 365.283 265.467 364.42 274.515C369.237 263.376 375.155 252.656 381.1 242.173C381.838 240.877 383.997 241.797 383.259 243.107C377.773 252.796 372.273 262.693 367.678 272.926C374.487 267.043 381.713 261.69 389.371 256.978C390.652 256.197 392.072 258.065 390.791 258.846C381.783 264.394 373.331 270.765 365.534 277.902C365.534 277.902 365.534 277.902 365.52 277.902C361.719 287.075 358.753 296.554 357.249 306.424C360.02 315.792 362.568 325.23 364.754 334.765C368.889 352.79 371.827 371.08 373.317 389.523C373.442 391.028 371.103 391.321 370.992 389.801C368.722 361.6 362.986 333.845 354.952 306.759C354.952 306.759 354.952 306.731 354.938 306.731C352.766 301.155 348.742 296.471 344.801 292.052C340.666 287.424 336.377 282.949 331.894 278.655C331.49 278.265 331.072 277.902 330.669 277.526C329.75 277.805 329.067 278.585 328.274 279.101C327.48 279.617 326.617 280.021 325.795 280.509C323.874 281.624 321.98 282.767 320.1 283.938C316.271 286.322 312.512 288.804 308.808 291.383C307.569 292.247 306.149 290.379 307.388 289.515C311.342 286.768 315.366 284.12 319.46 281.596C321.409 280.398 323.372 279.185 325.377 278.07C326.06 277.693 326.714 277.219 327.369 276.773C316.703 275.56 306.149 279.268 295.525 279.91C294.021 280.007 293.729 277.665 295.246 277.582C305.94 276.926 316.522 273.288 327.271 274.403C319.711 267.531 311.746 261.104 303.378 255.249C297.474 251.123 291.39 247.275 285.152 243.693C283.857 242.954 284.776 240.779 286.085 241.532C308.237 254.218 328.288 270.333 345.428 289.25C347.642 291.689 349.883 294.199 351.902 296.861C351.61 295.927 351.317 294.993 351.011 294.059C345.609 277.4 339.399 261.034 332.715 244.864C332.548 244.794 332.381 244.696 332.242 244.515C328.093 239.455 323.693 234.617 319.084 229.975C318.875 230.017 318.652 230.003 318.416 229.878C313.946 227.536 308.892 227.396 303.949 227.285C298.045 227.159 292.155 227.048 286.252 226.922C284.748 226.895 285.11 224.566 286.6 224.594C292.671 224.72 298.741 224.831 304.826 224.957C308.321 225.04 311.871 225.222 315.241 226.128C305.049 216.384 293.868 207.685 281.88 200.227C276.394 196.811 270.727 193.675 264.934 190.789C263.584 190.12 264.517 187.959 265.867 188.628L265.826 188.656Z" fill="#295021"/>
<path d="M230.029 148.815C227.425 152.969 224.376 156.816 220.895 160.274C220.365 160.803 219.321 160.594 219.154 159.814C217.636 152.718 215.353 145.371 217.553 138.164C217.943 136.882 219.962 137.425 219.572 138.722C217.483 145.553 219.739 152.551 221.173 159.256L219.433 158.796C222.788 155.45 225.726 151.77 228.232 147.755C228.942 146.612 230.753 147.672 230.042 148.815H230.029Z" fill="white"/>
<path d="M228.414 201.467C236.532 191.751 242.268 178.633 240.068 166.101C238.62 157.82 236.935 149.609 235.807 141.147C235.153 136.254 234.499 131.347 233.844 126.454C233.524 124.043 231.171 116.473 232.243 114.424C222.134 133.759 200.72 143.782 189.706 162.811C178.985 181.324 181.24 209.804 180.767 230.84C196.097 224.441 211.789 217.805 223.833 206.36C225.42 204.855 226.966 203.21 228.428 201.467H228.414Z" fill="#6F9969"/>
<path d="M227.662 135.055C225.49 140.855 223.736 146.793 222.26 152.815C220.812 158.656 219.865 164.665 218.25 170.45C216.788 175.692 214.421 180.599 211.72 185.31C209.854 188.586 207.835 191.765 205.885 194.985C204.911 196.602 203.922 198.191 202.836 199.725C190.945 216.551 176.256 231.174 164.49 248.098C157.807 257.717 152.154 268.088 148.756 279.338C148.506 280.16 147.211 279.882 147.447 279.059C153.518 258.971 166.453 242.285 179.723 226.42C186.434 218.391 193.284 210.473 199.508 202.053C201.611 199.209 203.532 196.254 205.37 193.256C209.227 186.941 213.335 180.571 215.869 173.517C217.011 170.366 217.679 167.104 218.375 163.828C219.085 160.524 219.809 157.235 220.589 153.959C222.176 147.351 224.07 140.813 226.465 134.442C226.771 133.647 227.941 134.261 227.648 135.055H227.662Z" fill="#295021"/>
<path d="M208.125 210.919C200.203 214.516 192.266 218.098 184.344 221.695C183.898 221.904 183.341 221.388 183.48 220.928C186.947 209.413 189.245 197.578 190.303 185.603C190.373 184.753 191.681 185.032 191.612 185.882C190.554 197.857 188.256 209.692 184.789 221.207C184.497 220.956 184.218 220.691 183.926 220.44C191.849 216.858 199.785 213.261 207.708 209.678C208.487 209.33 208.905 210.598 208.125 210.947V210.919Z" fill="#295021"/>
<path d="M222.788 189.381C215.965 195.166 208.098 199.641 199.647 202.555C199.187 202.708 198.644 202.276 198.783 201.788C202.167 189.73 203.573 177.183 202.933 164.665C202.891 163.801 204.214 163.731 204.269 164.581C204.924 177.211 203.503 189.883 200.092 202.053C199.8 201.802 199.521 201.537 199.229 201.286C207.583 198.4 215.311 193.967 222.064 188.252C222.718 187.694 223.428 188.823 222.788 189.367V189.381Z" fill="#295021"/>
<path d="M232.673 160.106C231.462 164.484 229.151 168.582 225.892 171.774C222.857 174.744 218.666 176.082 214.795 177.56C214.364 177.727 213.918 177.406 213.918 176.96C213.946 166.881 213.013 156.816 211.078 146.933C210.91 146.096 212.178 145.678 212.345 146.515C214.308 156.524 215.283 166.686 215.255 176.891L214.377 176.291C218.025 174.897 222.049 173.67 224.904 170.882C227.995 167.871 230.223 163.996 231.364 159.841C231.587 159.019 232.896 159.284 232.673 160.12V160.106Z" fill="#295021"/>
<path d="M260.299 240.946C246.556 253.994 224.194 263.976 204.91 261.285C198.199 260.351 191.836 257.87 185.57 255.402C179.833 253.144 174.139 250.481 168.11 249.38C169.126 249.561 171.465 245.561 171.994 244.85C173.414 242.94 174.751 240.946 176.227 239.078C179.137 235.384 182.423 231.913 186.21 229.111C193.145 223.967 204.952 223.326 213.334 223.897C230.084 225.054 245.595 232.833 260.299 240.96V240.946Z" fill="#6F9969"/>
<path d="M159.338 253.019C168.291 248.125 177.662 243.915 187.478 241.1C192.518 239.65 197.74 238.493 202.933 237.74C208.169 236.973 213.474 236.903 218.751 237.029C224.891 237.168 231.018 237.559 237.158 237.503C238.007 237.503 238.091 238.827 237.242 238.841C226.618 238.925 215.966 237.642 205.37 238.785C200.26 239.343 195.122 240.444 190.165 241.755C185.208 243.065 180.349 244.738 175.601 246.69C170.282 248.864 165.13 251.401 160.09 254.148C159.338 254.552 158.614 253.437 159.366 253.032L159.338 253.019Z" fill="#295021"/>
<path d="M233.774 233.056C228.33 234.241 222.997 235.886 217.817 237.963C217.845 237.559 217.887 237.141 217.915 236.736C224.877 239.817 231.477 243.623 237.659 248.056C238.355 248.558 237.45 249.534 236.768 249.046C230.683 244.682 224.153 240.96 217.302 237.921C216.745 237.67 216.912 236.89 217.4 236.694C222.565 234.617 227.898 232.972 233.356 231.787C234.192 231.606 234.609 232.875 233.774 233.056Z" fill="#295021"/>
<path d="M219.208 251.457C213.75 246.076 207.164 241.95 199.924 239.427C199.464 239.274 199.2 238.73 199.576 238.326C203.433 234.088 208.125 230.728 213.346 228.386C214.126 228.038 214.544 229.306 213.764 229.655C208.738 231.899 204.254 235.161 200.55 239.218C200.439 238.855 200.314 238.479 200.202 238.117C207.666 240.709 214.474 244.905 220.113 250.468C220.726 251.067 219.835 252.057 219.222 251.457H219.208Z" fill="#295021"/>
<path d="M207.263 255.988C203.225 252.461 198.547 249.993 193.437 248.404C188.856 246.996 183.997 245.505 179.151 246.299C178.525 246.397 178.302 245.588 178.622 245.184C181.616 241.267 185.055 237.489 188.647 234.115C191.78 231.16 195.512 228.944 199.577 227.577C200.385 227.313 200.803 228.553 200.023 228.832C196.528 230.115 193.117 231.592 190.457 234.185C186.656 237.893 182.869 241.824 179.611 246.076C179.43 245.7 179.263 245.337 179.082 244.961C184.136 244.138 189.26 245.714 194.05 247.205C199.257 248.822 204.047 251.401 208.154 254.998C208.795 255.556 207.904 256.545 207.263 255.988Z" fill="#295021"/>
<path d="M164.725 213.958C163.861 217.987 166.437 221.96 170.461 222.824C174.485 223.688 178.453 221.109 179.317 217.081C180.18 213.052 177.604 209.079 173.58 208.214C169.556 207.35 165.588 209.929 164.725 213.958Z" fill="#528C4D"/>
<path d="M171.7 235.231C170.837 239.26 173.413 243.233 177.437 244.097C181.461 244.961 185.429 242.382 186.292 238.353C187.156 234.325 184.58 230.352 180.556 229.487C176.532 228.623 172.563 231.202 171.7 235.231Z" fill="#528C4D"/>
<path d="M143.63 221.611C142.767 225.64 145.342 229.613 149.366 230.477C153.39 231.342 157.359 228.763 158.222 224.734C159.085 220.705 156.509 216.732 152.485 215.868C148.461 215.004 144.493 217.582 143.63 221.611Z" fill="#528C4D"/>
<path d="M150.314 245.784C149.451 249.812 152.027 253.785 156.051 254.65C160.075 255.514 164.043 252.935 164.907 248.906C165.77 244.877 163.194 240.904 159.17 240.04C155.146 239.176 151.178 241.755 150.314 245.784Z" fill="#528C4D"/>
<path d="M612.585 186.286C614.799 192.532 617.583 199.962 618.015 206.639C618.419 212.884 612.849 215.212 608.045 217.317C605.665 218.363 600.095 221.43 599.023 224.079C597.867 226.964 601.891 227.815 604.328 227.41C605.72 227.173 614.854 225.11 614.938 223.437C614.061 239.789 609.605 255.821 602.184 270.36C599.204 276.201 595.375 276.243 589.861 274.598C583.428 272.675 577.204 270.43 571.482 266.861C564.074 262.247 557.029 257.047 550.471 251.29C546.53 247.819 514.909 214.864 521.273 211.295C522.47 210.626 523.96 210.919 525.31 211.198C528.262 211.797 531.27 212.174 534.291 212.327C535.294 212.383 536.338 212.397 537.271 211.992C538.19 211.588 538.97 210.668 538.872 209.664C538.789 208.856 538.176 208.2 537.536 207.685C532.551 203.698 524.614 204.646 520.284 199.948C518.808 198.345 517.973 196.268 517.276 194.19C514.687 186.454 513.809 178.271 512.946 170.171C512.487 165.85 512.027 161.528 511.568 157.207C511.512 156.691 511.456 156.161 511.568 155.645C511.902 154.237 513.545 153.471 514.993 153.61C516.441 153.749 517.708 154.558 518.933 155.339C522.359 157.541 525.784 159.744 529.195 161.946C530.253 162.63 531.381 163.327 532.634 163.424C533.887 163.522 535.308 162.797 535.53 161.542C535.67 160.761 535.308 159.981 534.918 159.298C529.474 150.041 517.109 145.79 516.914 133.703C516.831 128.643 518.864 123.792 521.147 119.289C523.027 115.609 525.102 112.026 527.315 108.541C528.777 106.227 530.963 101.111 533.734 100.107C536.463 99.1173 539.777 102.184 541.88 103.536C553.102 110.813 564.172 118.243 573.64 127.82C574.169 128.364 574.726 128.95 574.837 129.702C574.963 130.525 574.531 131.306 574.113 132.017C571.51 136.505 569.212 141.426 565.731 145.246C564.506 146.584 563.322 147.532 563.35 149.609C563.392 152.328 565.105 152.843 566.943 150.878C570.716 146.835 574.002 141.189 578.471 137.955C579.056 137.523 579.752 137.147 580.476 137.202C581.409 137.286 582.106 138.081 582.69 138.819C586.812 144.089 590.627 149.595 594.108 155.297C594.679 156.245 595.263 157.276 595.152 158.378C594.999 159.786 593.788 160.789 592.715 161.696C587.884 165.794 583.219 171.105 580.421 176.807C579.725 178.229 579.154 179.846 579.627 181.351C579.794 181.881 580.114 182.383 580.588 182.676C581.507 183.247 582.704 182.899 583.665 182.425C588.427 180.097 591.49 175.399 595.069 171.482C595.89 170.589 596.823 169.683 598.02 169.488C600.624 169.084 604.049 172.736 605.623 174.549C608.575 177.978 611.095 182.007 612.599 186.286H612.585Z" fill="#528C4D"/>
<path d="M553.408 130.873C551.027 136.756 548.465 142.542 545.778 148.285C543.508 138.373 541.531 128.392 539.763 118.383C539.512 116.933 537.326 117.602 537.577 119.024C539.415 129.41 541.49 139.753 543.87 150.041C541.086 148.857 538.691 146.556 536.366 144.73C533.177 142.221 529.975 139.712 526.786 137.202C525.644 136.31 524.071 137.955 525.227 138.861C528.666 141.566 532.119 144.27 535.558 146.975C538.301 149.121 541.058 151.686 544.483 152.662C547.156 163.926 550.206 175.106 553.756 186.133C546.432 181.728 539.429 176.793 532.857 171.314C531.743 170.38 530.169 172.039 531.297 172.973C538.621 179.065 546.432 184.544 554.675 189.353C554.731 189.381 554.787 189.381 554.842 189.395C555.163 190.343 555.455 191.291 555.775 192.225C558.101 199.042 560.635 205.789 563.392 212.438C563.28 212.675 563.169 212.912 563.057 213.149C555.845 209.999 548.632 206.848 541.434 203.698C540.097 203.112 539.025 205.12 540.376 205.705C547.95 209.009 555.525 212.327 563.099 215.631C563.614 215.854 564.269 215.742 564.575 215.24C568.028 223.382 571.815 231.383 575.979 239.19C575.296 238.939 574.503 238.577 574.266 238.493C572.693 237.963 571.119 237.42 569.56 236.848C565.856 235.524 562.18 234.102 558.546 232.61C551.751 229.808 545.068 226.727 538.524 223.382C537.229 222.713 536.157 224.72 537.466 225.389C548.535 231.049 559.994 235.942 571.746 240.012C573.194 240.514 574.656 241.044 576.132 241.49C576.55 241.616 576.967 241.727 577.371 241.727C580.253 247.011 583.317 252.21 586.561 257.298C586.505 257.298 586.449 257.298 586.394 257.298C585.461 257.271 584.444 256.95 583.525 256.783C581.604 256.448 579.696 256.1 577.775 255.765C573.709 255.04 569.629 254.315 565.564 253.604C564.13 253.353 563.6 255.57 565.049 255.821C569.713 256.643 574.391 257.48 579.056 258.302C581.325 258.706 583.595 259.153 585.878 259.515C586.63 259.627 587.354 259.668 588.009 259.515C588.273 259.905 588.524 260.31 588.775 260.7C596.642 272.591 605.525 283.785 615.439 294.031C616.455 295.091 618.015 293.418 616.998 292.372C606.862 281.903 597.853 270.416 589.889 258.233C590.975 256.866 591.713 255.04 592.478 253.493C593.397 251.625 594.275 249.729 595.068 247.805C596.711 243.86 598.076 239.817 599.19 235.691C599.566 234.283 597.352 233.767 596.976 235.175C595.054 242.285 592.339 249.171 588.802 255.626C588.705 255.793 588.621 255.946 588.524 256.1C585.238 250.956 582.133 245.686 579.195 240.319C579.418 239.789 579.557 239.204 579.696 238.674C580.128 237.029 580.56 235.384 580.991 233.739C582.592 227.508 584.068 221.249 585.433 214.962C586.978 207.838 588.371 200.687 589.624 193.521C589.875 192.086 587.661 191.556 587.41 193.006C584.82 207.838 581.604 222.559 577.761 237.113C577.733 237.224 577.705 237.364 577.677 237.503C576.41 235.105 575.157 232.694 573.96 230.254C571.078 224.413 568.404 218.489 565.898 212.48C569.81 203.977 572.943 195.138 575.269 186.063C575.631 184.641 573.417 184.126 573.055 185.548C570.952 193.786 568.167 201.802 564.728 209.553C561.79 202.29 559.089 194.943 556.653 187.499C559.117 178.382 560.593 169.028 561.052 159.591C561.122 158.127 558.852 158.197 558.783 159.66C558.393 167.676 557.223 175.622 555.358 183.415C552.879 175.58 550.624 167.662 548.605 159.702C547.936 157.095 547.324 154.475 546.697 151.854C549.83 145.288 552.768 138.638 555.483 131.905C556.026 130.567 554.021 129.479 553.478 130.846L553.408 130.873Z" fill="#264F21"/>
<path d="M527.592 40.9164C527.913 40.6097 528.414 40.6236 528.72 40.9443C529.194 41.4182 532.549 42.1013 534.039 42.1849C534.93 42.2407 535.821 42.2546 536.685 42.2686C538.745 42.2964 540.89 42.3243 543.09 42.8959C545.234 43.4535 547.253 44.3736 549.272 45.7258C550.427 46.4925 551.486 47.3568 552.558 48.2908C552.307 47.8865 552.07 47.4683 551.82 47.064C551.569 46.6458 551.291 46.1998 551.04 45.7816C550.692 45.8652 550.33 45.7119 550.163 45.3912C549.049 43.3141 547.364 41.6552 545.582 39.8848C544.941 39.2575 544.301 38.6162 543.688 37.961C538.662 32.6219 535.835 25.9026 534.805 16.7996C534.554 14.597 534.471 12.3526 534.387 10.1779C534.276 7.12497 534.164 3.97443 533.566 0.963317C533.482 0.531167 533.747 0.112967 534.192 0.0153842C534.624 -0.0682578 535.042 0.196612 535.125 0.628763C535.237 0.93545 536.169 1.73006 536.601 2.12039C536.949 2.41314 537.256 2.69196 537.423 2.87318C538.537 4.07205 539.497 5.18725 540.361 6.24672C542.449 8.82568 544.064 11.2374 545.303 13.663C546.222 15.4474 546.835 17.3153 547.183 19.3925C547.517 21.4277 547.559 23.4909 547.587 25.4844C547.615 27.0736 547.643 28.7186 547.824 30.3078C548.186 33.291 549.035 35.9676 549.94 38.8114C550.358 40.1357 550.762 41.4879 551.138 42.8819C551.848 44.0251 552.53 45.1542 553.198 46.2555C554.618 48.6254 556.011 50.9255 557.654 53.2117C559.311 54.9125 560.898 56.6829 562.416 58.5091C561.497 56.2786 560.634 54.0063 560.077 51.6365C558.949 46.8549 558.615 42.5752 559.032 38.5604C559.283 36.1627 559.826 33.7789 560.355 31.4788C561.065 28.3701 561.803 25.1359 561.775 21.9436C561.775 21.5811 562.026 21.2465 562.36 21.1629C562.708 21.0653 563.084 21.2326 563.251 21.5393C566.036 26.4881 569.197 32.1061 570.116 38.2259C570.742 42.4498 570.324 46.9804 568.89 51.3298C568.584 52.2499 568.264 53.1281 567.944 54.0064C566.899 56.8362 565.939 59.5267 566.008 62.7051C570.116 67.0684 574.237 71.5712 578.233 76.2133L578.15 75.8648C577.008 70.7905 577.078 65.4653 578.372 60.4886C579.236 57.115 580.642 53.9227 581.993 50.828L587.465 38.3095C587.604 37.9889 587.938 37.8077 588.272 37.8355C588.62 37.8634 588.899 38.1144 588.968 38.4629C589.957 43.0353 590.709 47.7053 591.21 52.3614C591.6 56.0138 591.767 59.0806 591.252 62.1475C590.584 66.1623 588.746 69.8565 587.214 72.6306C586.058 74.7356 584.722 76.9243 582.898 78.7505C582.48 79.1687 581.951 79.6426 581.352 79.8796C586.406 85.9437 591.238 92.2587 595.596 98.8385C594.162 94.0988 592.742 89.1918 593.201 84.006C593.661 78.8202 595.206 73.8714 596.766 69.2571C597.768 66.2739 598.966 63.2348 601.639 61.6038C601.834 61.4923 602.057 61.4644 602.28 61.5202C602.488 61.5899 602.669 61.7433 602.767 61.9384C606.373 69.4523 607.96 76.06 607.64 82.124C607.362 87.1983 605.663 91.3386 603.338 95.1861C605.955 94.7679 608.615 95.5207 610.926 96.371C616.621 98.4482 621.94 101.376 626.758 105.07C627.008 105.265 627.12 105.572 627.05 105.878C626.994 106.129 626.813 106.338 626.577 106.436C626.535 106.45 626.493 106.464 626.437 106.478C621.829 107.454 617.067 108.471 612.249 108.611C609.102 108.694 606.666 108.36 604.591 107.523C602.349 106.631 600.428 105.126 598.687 103.662C609.102 120.655 616.12 139.433 615.8 160.455C615.8 160.789 615.591 161.068 615.312 161.18C615.215 161.222 615.103 161.235 614.992 161.235C614.546 161.235 614.198 160.873 614.212 160.427C614.449 144.549 610.411 129.953 603.867 116.417C602.488 118.731 600.776 121.269 598.339 123.527C595.332 126.343 592.032 128.88 588.551 131.082C588.467 131.124 581.867 134.874 578.79 136.143C578.052 136.45 577.509 136.603 577.328 136.547C577.091 136.463 576.91 136.268 576.827 136.031C575.365 131.543 578.052 127.137 579.779 124.907C582.466 121.45 586.072 118.662 590.18 116.849C594.524 114.926 598.478 113.936 602.516 113.699C600.873 110.507 599.105 107.384 597.225 104.317C597.114 104.317 597.002 104.317 596.877 104.289C593.744 103.23 591.168 103.467 588.189 103.745C587.325 103.829 586.448 103.913 585.515 103.969C581.547 104.206 577.537 103.885 573.583 103.021C569.642 102.156 565.869 100.762 562.346 98.8803C560.62 97.9603 558.963 96.9147 557.389 95.7856C557.153 95.6043 556.749 95.228 556.053 94.5728C555.329 93.8897 553.839 92.4817 553.379 92.2308C553.031 92.1889 552.739 91.9101 552.697 91.5477C552.627 91.1155 552.948 90.7113 553.365 90.6416C560.383 89.61 568.542 88.6342 576.395 89.9306C580.684 90.6416 584.61 92.0077 588.063 93.9873C590.082 95.1582 591.823 96.7474 593.452 98.4342C589.595 92.7047 585.376 87.1983 580.976 81.8731C580.169 82.0961 579.375 82.3331 578.581 82.5701C576.799 83.0998 574.961 83.6435 573.095 84.0478C566.37 85.4697 559.756 82.9744 553.003 80.0609C548.52 78.1232 543.981 75.8648 542.143 71.4318C542.031 71.153 542.073 70.8324 542.268 70.6093C542.463 70.3863 542.769 70.2747 543.062 70.3584C547.267 71.3899 551.736 71.3621 556.067 71.3342C558.197 71.3342 560.397 71.3063 562.555 71.4178C567.275 71.6548 571.16 72.5609 574.362 74.1501C571.257 70.6372 568.097 67.1939 564.936 63.8482C564.755 63.7646 564.588 63.6252 564.504 63.43C564.504 63.4161 564.49 63.3882 564.477 63.3743C563.794 62.6494 563.098 61.9105 562.416 61.1996C561.65 60.7674 560.077 60.3492 559.158 60.1122C558.642 59.9728 558.183 59.8613 557.863 59.7498C555.468 58.9412 552.948 58.4952 550.511 58.063C545.735 57.2266 540.806 56.3483 536.559 52.7796C534.443 50.9952 532.8 48.7508 531.199 46.5761C530.071 45.0288 528.901 43.4396 527.579 42.0455C527.579 42.0455 527.565 42.0316 527.551 42.0177C527.272 41.697 527.3 41.2091 527.606 40.9164H527.592ZM581.046 125.897C579.89 127.388 577.426 131.069 578.136 134.749C580.322 133.745 586.824 130.302 587.701 129.744C591.113 127.583 594.329 125.102 597.253 122.37C599.23 120.53 600.706 118.466 601.945 116.501C596.78 118.522 592.435 122.328 588.258 126.036C586.003 128.03 583.677 130.093 581.227 131.877C581.185 131.905 581.143 131.933 581.101 131.947C580.851 132.044 580.558 131.975 580.391 131.752C580.196 131.487 580.252 131.11 580.531 130.915C582.939 129.159 585.251 127.123 587.479 125.144C591.739 121.366 596.167 117.491 601.528 115.4C598.061 115.734 594.621 116.654 590.848 118.327C586.977 120.042 583.594 122.663 581.06 125.911L581.046 125.897ZM546 25.4983C545.972 23.5606 545.93 21.5672 545.61 19.6434C545.29 17.7336 544.733 16.005 543.897 14.374C542.714 12.0599 541.154 9.71785 539.135 7.23647C538.3 6.20489 537.353 5.11756 536.267 3.94657C536.128 3.79323 535.863 3.57017 535.571 3.31924C535.571 3.31924 535.557 3.31927 535.543 3.30533C535.821 5.59154 535.905 7.89169 535.975 10.1361C536.058 12.269 536.128 14.4855 536.378 16.6323C537.381 25.3729 540.068 31.8133 544.844 36.8876C545.443 37.5289 546.069 38.1423 546.696 38.7696C546.807 38.8811 546.905 38.9926 547.016 39.0902C544.579 35.0335 542.714 31.0048 541.488 27.0736C540.876 25.122 540.709 23.1006 540.542 21.1211C540.277 18.0821 540.026 15.2104 538.328 12.6175C538.147 12.3387 538.216 11.9762 538.495 11.795C538.759 11.6138 539.135 11.6835 539.316 11.9623C541.182 14.8061 541.461 17.9566 541.725 21.0235C541.892 22.9333 542.059 24.8989 542.63 26.7111C543.869 30.6702 545.777 34.7408 548.283 38.8532C547.448 36.2045 546.598 33.4583 546.25 30.489C546.055 28.8301 546.028 27.1433 546 25.5123V25.4983ZM567.401 50.828C568.751 46.7156 569.155 42.4359 568.57 38.4629C567.846 33.5838 565.563 28.9556 563.237 24.7316C562.987 27.1433 562.444 29.5132 561.915 31.8273C561.399 34.0856 560.87 36.4136 560.62 38.7277C560.216 42.5613 560.55 46.6737 561.622 51.274C562.263 53.9645 563.321 56.5993 564.407 59.1503C563.571 53.7415 563.488 49.183 564.142 44.5687C564.741 40.3448 565.131 36.2742 563.404 32.7892C563.265 32.4964 563.377 32.1339 563.669 31.9945C563.961 31.8551 564.323 31.9667 564.463 32.2594C566.328 36.0512 565.911 40.5121 565.312 44.736C564.755 48.6254 564.755 52.4869 565.284 56.892C565.632 55.7489 566.036 54.6197 566.454 53.4766C566.76 52.6263 567.08 51.7619 567.387 50.8558L567.401 50.828ZM585.849 71.85C587.311 69.1874 589.08 65.6605 589.72 61.8826C590.194 58.9831 590.041 56.0556 589.665 52.5287C589.261 48.7648 588.69 44.987 587.952 41.2509L583.482 51.4692C582.146 54.5082 580.781 57.6448 579.946 60.8929C578.721 65.6326 578.651 70.679 579.737 75.5163L579.862 76.1157C579.946 76.5339 580.071 77.0776 580.196 77.5516C580.475 76.2272 580.712 74.889 580.92 73.5786C581.324 71.0833 581.742 68.5043 582.563 65.9951L583.079 64.4616C584.193 61.1438 585.362 57.7284 585.07 54.2294C585.042 53.8948 585.293 53.616 585.613 53.5881C585.947 53.5602 586.225 53.8112 586.253 54.1318C586.56 57.8678 585.362 61.4226 584.206 64.838L583.705 66.3575C582.912 68.7692 582.508 71.3063 582.118 73.7459C581.895 75.1539 581.631 76.6037 581.324 78.0535C581.464 77.9419 581.617 77.8025 581.798 77.6213C583.482 75.9345 584.75 73.8574 585.849 71.85ZM606.095 82.0543C606.387 76.4921 604.981 70.4141 601.778 63.4997C600.038 64.9635 599.105 67.3891 598.311 69.7729C596.794 74.3035 595.276 79.1408 594.83 84.1593C594.385 89.2476 595.805 93.9454 597.323 98.9361C597.351 99.0476 597.392 99.1591 597.42 99.2567C598.799 91.8404 599.62 84.2708 599.787 76.7431C599.787 76.4085 600.066 76.1575 600.4 76.1575C600.734 76.1575 600.985 76.4364 600.985 76.7709C600.804 84.3266 599.996 91.9101 598.618 99.3543C602.447 94.1824 605.733 88.9827 606.095 82.0543ZM605.204 106.06C607.083 106.798 609.311 107.119 612.235 107.035C616.329 106.924 620.422 106.143 624.404 105.307C620.102 102.198 615.396 99.7167 610.411 97.8905C608.044 97.0262 605.301 96.2456 602.809 96.9566C602.53 97.0263 602.447 97.1099 602.419 97.1378C602.321 97.4305 602.071 97.6396 601.778 97.6814C601.096 98.6851 600.372 99.6749 599.648 100.651C604.911 99.9955 610.272 100.497 615.326 102.17C615.632 102.282 615.813 102.616 615.702 102.923C615.646 103.09 615.521 103.23 615.368 103.285C615.243 103.341 615.089 103.341 614.95 103.299C609.84 101.599 604.41 101.139 599.105 101.905C600.985 103.508 602.934 105.14 605.217 106.046L605.204 106.06ZM587.284 95.4091C583.998 93.5133 580.252 92.2168 576.159 91.5337C569.238 90.3906 562.026 91.0876 555.593 91.9659C556.011 92.3423 556.54 92.8302 557.167 93.4296C557.668 93.9036 558.183 94.3915 558.35 94.517C559.854 95.6043 561.455 96.608 563.112 97.5002C566.509 99.3124 570.157 100.651 573.945 101.487C577.76 102.324 581.631 102.63 585.446 102.407C586.365 102.351 587.228 102.268 588.077 102.184C589.887 102.017 591.628 101.864 593.48 102.017C586.17 98.7409 578.177 96.845 570.199 96.5244C569.865 96.5244 569.614 96.2316 569.628 95.8971C569.642 95.5625 569.921 95.3116 570.255 95.3255C578.15 95.6461 586.058 97.4723 593.34 100.637C591.489 98.6572 589.553 96.7056 587.311 95.4091H587.284ZM562.471 73.0349C560.355 72.9234 558.183 72.9373 556.08 72.9513C552.224 72.9792 548.255 72.9931 544.385 72.2821C546.334 75.2654 549.996 77.0498 553.644 78.625C560.146 81.441 566.509 83.8526 572.775 82.5143C574.571 82.1379 576.381 81.5943 578.136 81.0785C578.637 80.9251 579.138 80.7858 579.639 80.6324C577.913 79.5033 575.699 79.2662 573.736 79.1687C572.149 79.085 570.533 79.0571 568.918 79.0293C563.46 78.9317 557.821 78.8202 552.725 76.6594C552.419 76.534 552.279 76.1854 552.405 75.8788C552.53 75.5721 552.878 75.4327 553.184 75.5581C558.072 77.6352 563.599 77.7328 568.932 77.8444C570.561 77.8722 572.176 77.9001 573.792 77.9837C575.114 78.0534 576.465 78.1928 577.732 78.5274C576.994 77.7886 576.242 77.1055 575.379 76.5618C572.079 74.4568 567.86 73.3137 562.471 73.0349ZM532.48 45.6561C534.081 47.8447 535.599 49.9218 537.576 51.5807C541.502 54.8846 546.014 55.6792 550.789 56.5156C553.282 56.9617 555.872 57.4078 558.378 58.2581C558.517 58.3 558.698 58.3557 558.879 58.4115C557.25 57.3381 555.398 56.5574 553.56 55.8046L552.934 55.5537C547.81 53.4208 542.783 50.8977 538.021 48.0399C537.743 47.8726 537.645 47.5102 537.812 47.2174C537.98 46.9386 538.342 46.841 538.634 47.0083C543.354 49.8242 548.311 52.3196 553.393 54.4385L554.02 54.7034C555.44 55.2889 556.874 55.8883 558.225 56.6271C557.598 55.8604 557.027 55.0937 556.484 54.3409C556.011 53.853 555.551 53.3651 555.078 52.8911C552.725 50.5631 550.734 48.6532 548.422 47.1059C546.557 45.8512 544.691 45.0009 542.728 44.499C540.695 43.9832 538.745 43.9414 536.685 43.9135C535.794 43.8996 534.889 43.8856 533.97 43.8299C533.649 43.8159 532.187 43.6487 530.725 43.328C531.338 44.1087 531.909 44.9033 532.48 45.684V45.6561Z" fill="#6F9969"/>
<path d="M326.479 131.194C333.246 134.177 339.79 136.868 339.888 136.352C340.96 130.316 342.826 124.349 344.9 118.564C346.808 113.239 350.428 107.914 347.949 102.101C347.601 101.278 347.072 100.47 346.265 100.051C345.193 99.5077 343.828 99.8004 342.853 100.525C341.879 101.25 341.224 102.31 340.681 103.397C339.345 106.046 338.495 108.945 338.189 111.901C338.314 107.621 338.44 103.341 338.217 99.0616C338.119 97.1657 337.938 95.228 337.061 93.5412C336.309 92.1053 334.68 90.8368 333.149 91.3805C331.881 91.8265 331.283 93.2484 330.893 94.5449C329.918 97.793 329.361 101.181 329.236 104.568C329.264 98.95 327.635 93.3321 324.599 88.6063C323.444 86.808 321.996 85.0515 320.004 84.2709C317.972 83.4623 315.368 83.6157 314.184 85.7904C313.112 87.7559 314.073 91.1156 314.56 93.1788C315.953 98.978 319.058 104.303 322.97 108.764C320.464 107.3 317.791 106.157 315.006 105.349C313.265 104.847 310.982 104.666 310.035 106.213C309.464 107.147 309.659 108.388 310.244 109.308C310.829 110.228 311.734 110.897 312.625 111.51C315.674 113.601 318.877 115.441 322.232 117.003C320.102 116.431 317.93 115.846 315.716 115.902C313.502 115.943 311.205 116.71 309.784 118.397C309.325 118.954 308.949 119.61 308.879 120.335C308.698 122.091 310.258 123.527 311.789 124.419C312.959 125.088 319.823 128.281 326.465 131.208L326.479 131.194Z" fill="#6F9969"/>
<path d="M526.939 235.719C528.081 235.719 529.139 236.137 529.975 236.96C530.796 237.768 531.242 238.842 531.256 239.985C531.27 242.355 529.362 244.292 526.995 244.306C525.895 244.306 524.865 243.916 524.057 243.163C524.029 243.135 523.988 243.093 523.96 243.066C523.138 242.257 522.693 241.184 522.679 240.04C522.679 238.897 523.11 237.81 523.918 237.001C524.726 236.179 525.798 235.733 526.939 235.719Z" fill="#6F9969"/>
<path d="M512.975 223.897C514.117 223.897 515.189 224.316 516.01 225.138C516.832 225.947 517.278 227.02 517.291 228.163C517.305 230.533 515.398 232.471 513.031 232.485C511.931 232.485 510.9 232.094 510.093 231.342C510.065 231.314 510.023 231.272 509.995 231.244C509.174 230.435 508.728 229.362 508.714 228.219C508.714 227.076 509.146 225.988 509.954 225.18C510.761 224.371 511.833 223.911 512.975 223.897Z" fill="#6F9969"/>
<path d="M513.239 242.87C514.06 243.679 514.506 244.752 514.52 245.895C514.534 248.265 512.626 250.203 510.259 250.217C509.159 250.217 508.129 249.827 507.321 249.074C507.294 249.046 507.252 249.004 507.224 248.976C506.402 248.168 505.957 247.094 505.943 245.951C505.943 244.808 506.375 243.721 507.182 242.912C507.99 242.09 509.062 241.644 510.204 241.63C511.345 241.63 512.404 242.062 513.239 242.87Z" fill="#6F9969"/>
</svg>
