<svg width="624" height="291" viewBox="0 0 624 291" fill="none" xmlns="http://www.w3.org/2000/svg">
<path d="M-35.957 126.803C-15.1828 95.5208 18.9444 73.4672 55.9677 67.3892C92.991 61.3112 132.367 71.3064 162.025 94.2941C190.708 116.529 209.324 149.038 233.816 175.831C249.703 193.215 269.892 205.636 288.369 219.674C308.378 234.869 333.844 242.954 358.963 241.49C384.596 239.999 408.643 229.32 433.037 221.277C460.759 212.132 489.568 206.249 518.654 203.809C533.664 202.555 549.05 202.234 563.475 206.57C593.718 215.659 615.174 244.599 621.997 275.477C623.292 281.332 624.099 287.619 621.816 293.153C619.546 298.66 614.589 302.549 609.577 305.741C580.615 324.184 544.831 325.118 512.208 317.563C491.907 312.865 470.966 317.214 450.177 318.023C401.82 319.905 353.421 317.047 305.245 312.99C208.711 304.863 111.746 291.452 14.7394 299.956C2.18017 301.057 -13.1221 301.28 -19.8612 290.616C-22.5763 286.308 -23.2168 281.053 -23.7459 275.979C-28.3268 232.833 -31.0141 189.479 -31.7799 146.096" fill="#E9F9E6"/>
<path d="M282.173 156.998C294.161 160.441 287.812 185.283 287.032 193.87C286.364 201.188 285.236 208.479 283.649 215.645C283.301 217.234 278.915 232.568 277.94 235.635C277.843 235.984 277.759 236.179 277.745 236.179C277.439 236.025 277.118 235.872 276.798 235.719C259.338 227.104 241.404 219.562 223.804 211.463C220.087 209.748 215.283 207.671 213.139 203.977C210.883 200.087 210.382 194.874 215.826 194.037C219.126 193.535 222.482 194.232 225.768 194.915C224.807 193.173 218.917 191.249 217.093 190.273C213.793 188.503 210.284 186.9 207.096 184.92C201.958 181.714 196.319 179.246 191.167 175.929C186.419 172.876 175.893 163.996 179.847 157.29C182.256 153.22 189.232 154.447 193.158 154.725C199.688 155.199 205.968 157.346 212.108 159.451C204.966 155.534 197.795 151.575 191.39 146.57C184.971 141.552 179.29 135.362 175.948 127.918C174.347 124.391 173.54 119.693 176.394 117.072C178.831 114.828 182.66 115.358 185.834 116.292C194.913 118.982 203.295 123.931 210.006 130.595C198.268 117.811 186.141 104.359 181.504 87.6305C180.933 85.5952 180.501 83.4623 180.808 81.3573C181.114 79.2662 182.298 77.1891 184.233 76.3388C187.366 74.9587 190.861 77.1334 193.423 79.4057C205.62 90.1955 212.039 104.582 220.435 118.118C218.597 110.66 217.636 102.965 217.608 95.2698C217.58 88.7596 218.444 81.7197 222.899 76.98C223.442 76.4085 224.097 75.8369 224.89 75.7254C226.102 75.5581 227.174 76.4921 227.981 77.4122C233.44 83.532 235.932 91.7289 237.714 99.7307C239.775 108.931 241.126 118.285 241.71 127.695C241.418 122.398 241.279 117.449 243.005 111.845C244.384 107.412 247.141 99.5634 253.156 101.167C254.757 101.585 256.08 102.658 257.166 104.122C260.563 108.666 261.788 116.961 262.735 121.213C264.671 129.8 265.478 138.582 266.147 147.351C266.495 151.895 266.773 156.44 267.149 160.985C267.441 164.609 268.959 169.614 268.416 173.154C269.043 169.168 269.697 165.055 271.911 161.682C274.097 158.308 278.302 155.868 282.159 156.998H282.173Z" fill="#264F21"/>
<path d="M251.554 185.771C251.554 185.882 251.513 185.994 251.457 186.091C257.486 196.56 263.64 207.322 269.265 218.266C271.034 201.816 273.874 185.338 277.745 169.265C277.815 168.986 278.093 168.805 278.399 168.875C278.678 168.945 278.859 169.223 278.789 169.53C274.807 186.077 271.897 203.057 270.157 219.994C272.802 225.166 275.406 230.394 277.954 235.649C277.856 235.998 277.773 236.193 277.759 236.193C277.453 236.039 277.132 235.886 276.812 235.733C274.417 230.798 271.953 225.877 269.474 221.012C269.391 221.012 269.307 220.984 269.252 220.942C255.634 211.435 239.789 204.869 223.442 201.997C223.136 201.955 222.955 201.663 222.997 201.37C223.052 201.077 223.317 200.882 223.623 200.924C239.594 203.754 255.077 210.041 268.514 219.158C262.624 207.671 256.135 196.351 249.8 185.366C243.339 179.33 234.553 176.221 225.364 173.322C215.45 170.199 205.717 167.341 195.65 166.421C195.358 166.393 195.149 166.129 195.163 165.836C195.191 165.543 195.456 165.334 195.748 165.348C205.926 166.268 215.715 169.168 225.684 172.29C233.955 174.897 241.905 177.685 248.213 182.606C245.33 177.574 242.393 172.471 239.496 167.3C223.22 151.449 204.798 137.997 184.734 127.319C184.484 127.179 184.386 126.859 184.525 126.608C184.665 126.329 184.985 126.231 185.249 126.371C204.381 136.561 222.008 149.261 237.742 164.149C236.197 161.375 234.679 158.601 233.189 155.813C222.607 136.017 209.505 112.974 192.587 92.203C192.406 91.9799 192.434 91.6314 192.657 91.4502C192.894 91.269 193.228 91.2969 193.409 91.5199C210.396 112.375 223.512 135.46 234.122 155.311C235.25 157.416 236.391 159.521 237.547 161.626C233.231 148.132 223.052 112.946 226.561 90.6277C226.603 90.3489 226.882 90.1398 227.16 90.1816C227.466 90.2234 227.661 90.5022 227.606 90.795C223.345 117.909 239.552 164.4 240.346 166.658C243.52 172.332 246.765 177.978 249.953 183.498C250.106 183.791 250.287 184.07 250.441 184.363C249.939 163.675 249.549 142.346 255.606 122.105C255.69 121.812 255.996 121.645 256.275 121.743C256.567 121.826 256.72 122.133 256.637 122.412C250.496 142.974 251.025 164.735 251.54 185.798L251.554 185.771Z" fill="#95BC8F"/>
<path d="M156.818 96.4686C155.37 96.9426 154.492 98.3227 154.576 99.7725C151.833 100.051 149.02 99.3961 146.82 98.6293C145.442 98.1554 144.064 97.5838 142.741 97.0262C140.736 96.1898 138.675 95.3534 136.531 94.7818C137.13 94.6006 137.742 94.4055 138.341 94.2242C140.722 93.5272 143.186 92.8023 145.484 91.7428C148.157 90.5022 150.315 88.8572 151.833 86.9752C152.571 87.3377 153.448 87.4213 154.284 87.1425C156.01 86.5849 156.943 84.7169 156.386 82.9883C155.829 81.2597 153.963 80.3257 152.237 80.8833C150.51 81.4409 149.577 83.3089 150.134 85.0375C150.287 85.5254 150.566 85.9437 150.9 86.2922C149.494 88.0347 147.503 89.5403 144.996 90.6973C143.465 91.4083 141.85 91.9519 140.221 92.4538C140.778 89.0942 142.546 86.0133 144.384 83.2253C144.774 83.2392 145.164 83.1974 145.553 83.072C147.28 82.5143 148.213 80.6463 147.656 78.9317C147.099 77.2031 145.233 76.269 143.507 76.8267C141.78 77.3843 140.847 79.2523 141.404 80.9809C141.71 81.901 142.379 82.584 143.186 82.9465C141.265 85.8879 139.441 89.1639 138.981 92.8302C138.661 92.9278 138.327 93.0253 138.007 93.1229C136.795 93.4714 135.598 93.8339 134.4 94.2242C130.906 95.3952 128.274 96.7753 126.297 98.49C126.52 98.0021 126.742 97.5141 126.965 97.0402C129.75 91.0319 132.604 84.8284 134.735 78.5134C135.124 78.5274 135.528 78.4856 135.918 78.3601C137.645 77.8025 138.578 75.9345 138.021 74.2059C137.464 72.4773 135.598 71.5433 133.871 72.1009C132.145 72.6585 131.212 74.5265 131.769 76.2551C132.075 77.1891 132.771 77.8861 133.607 78.2486C131.49 84.4799 128.664 90.5997 125.907 96.5522C123.442 101.877 120.95 107.286 118.917 112.862C119.084 109.001 118.667 104.847 117.608 100.414C117.232 98.8524 116.745 97.3329 116.188 95.8552C116.676 93.8199 118.096 89.2475 121.424 85.3163C122.217 85.8182 123.206 85.9715 124.166 85.6648C125.893 85.1072 126.826 83.2392 126.269 81.5106C125.712 79.782 123.846 78.848 122.12 79.4056C120.393 79.9632 119.46 81.8312 120.017 83.5598C120.129 83.9223 120.324 84.2429 120.532 84.5217C117.706 87.8535 116.202 91.6174 115.45 94.0848C114.684 92.2586 113.849 90.4743 113.014 88.7317C112.248 87.1286 111.482 85.4975 110.772 83.8247C111.162 81.9009 112.192 80.2002 113.306 78.4158C113.724 77.7328 114.141 77.0636 114.531 76.3666C115.381 74.8332 116.035 73.2022 116.522 71.5293C116.926 71.5572 117.358 71.5154 117.762 71.376C119.488 70.8184 120.421 68.9503 119.864 67.2217C119.307 65.4931 117.441 64.5592 115.715 65.1168C113.988 65.6744 113.055 67.5424 113.612 69.271C113.905 70.191 114.573 70.8741 115.395 71.2366C114.935 72.8118 114.322 74.3453 113.515 75.7951C113.139 76.4642 112.735 77.1334 112.317 77.7885C111.468 79.1547 110.619 80.5487 110.062 82.0682C109.547 80.716 109.073 79.3498 108.711 77.9419C107.973 75.098 107.416 71.0275 108.516 66.9011C108.781 66.8872 109.059 66.8454 109.324 66.7617C111.05 66.2041 111.983 64.3361 111.426 62.6075C110.869 60.8789 109.004 59.9449 107.291 60.5025C105.578 61.0601 104.631 62.9281 105.188 64.6567C105.536 65.7162 106.372 66.4829 107.374 66.7896C106.288 71.0972 106.845 75.2932 107.611 78.2486C108.126 80.2281 108.823 82.1379 109.602 83.992C109.616 84.0896 109.658 84.1732 109.714 84.2429C110.034 85.0097 110.382 85.7764 110.73 86.5291C110.243 86.2364 109.741 85.9994 109.296 85.8182C108.363 85.4558 107.388 85.2188 106.442 84.9818C105.871 84.8424 105.286 84.703 104.729 84.5357C104.492 84.466 104.269 84.3823 104.047 84.2987C105.049 80.9809 104.353 77.9419 103.615 75.6417C103.587 75.5441 103.531 75.3768 103.42 75.1956C104.283 74.3453 104.659 73.0628 104.255 71.8221C103.699 70.0935 101.833 69.1595 100.106 69.7171C98.3797 70.2747 97.4468 72.1427 98.0037 73.8574C98.5607 75.586 100.426 76.52 102.139 75.9624C102.25 75.9345 102.334 75.8787 102.431 75.8369C102.445 75.8648 102.459 75.9066 102.487 75.9902C103.504 79.1547 103.643 81.5246 102.947 83.8805C100.858 82.9883 98.9505 81.6918 97.3632 80.0747C97.5721 79.4335 97.5999 78.7225 97.3632 78.0395C96.8063 76.3109 94.9405 75.3768 93.2139 75.9345C91.4874 76.4921 90.5545 78.3601 91.1115 80.0887C91.6684 81.8173 93.5342 82.7513 95.2607 82.1937C95.8873 81.9846 96.3886 81.6221 96.7784 81.1482C98.9088 83.2253 101.526 84.7866 104.381 85.6509C104.966 85.8321 105.564 85.9715 106.149 86.1109C107.096 86.3479 107.987 86.557 108.85 86.8916C109.95 87.3237 111.398 88.1183 112.053 89.5263C112.095 89.6099 112.15 89.6657 112.206 89.7215C113.64 92.7605 115.088 95.8831 116.049 99.2009C115.77 98.8663 115.464 98.5597 115.144 98.2669C113.877 97.1656 112.345 96.4407 110.883 95.7437C110.452 95.5346 110.02 95.3255 109.602 95.1164C110.243 94.28 110.466 93.1648 110.117 92.0914C109.56 90.3628 107.695 89.4287 105.968 89.9864C104.242 90.544 103.309 92.4119 103.866 94.1405C104.423 95.8691 106.288 96.8032 108.015 96.2456C108.252 96.1619 108.474 96.0643 108.683 95.9389C109.254 96.2316 109.825 96.5104 110.396 96.7892C111.858 97.4863 113.25 98.1275 114.392 99.1312C116.035 100.567 117.065 102.728 117.163 104.902C117.163 105.042 117.232 105.153 117.316 105.251C118.221 111.454 117.775 117.045 115.951 121.882C115.882 122.049 115.91 122.216 115.993 122.37C115.241 125.618 114.712 128.922 114.517 132.309C114.503 132.63 114.74 132.895 115.06 132.923C115.13 132.923 115.2 132.923 115.269 132.895C115.492 132.825 115.645 132.63 115.659 132.379C116.286 121.422 120.435 111.217 124.918 101.348C125.42 103.271 126.004 105.167 126.715 107.021C125.531 107.816 124.96 109.336 125.42 110.757C125.977 112.486 127.842 113.42 129.555 112.862C129.639 112.835 129.694 112.793 129.778 112.765H129.806C129.833 112.765 129.861 112.737 129.889 112.737C129.889 112.737 129.917 112.723 129.917 112.709C131.393 112.012 132.173 110.325 131.644 108.722C131.101 107.077 129.402 106.157 127.745 106.561C126.993 104.568 126.353 102.533 125.851 100.469C127.703 98.4202 130.363 96.831 134.164 95.5067C134.4 96.0643 134.456 96.7474 134.47 97.4026C134.484 98.1275 134.484 98.8524 134.498 99.5912C134.498 101.278 134.498 103.021 134.721 104.749C134.832 105.6 134.985 106.394 135.18 107.147C134.108 107.969 133.607 109.405 134.052 110.771C134.609 112.5 136.475 113.434 138.202 112.876C139.928 112.319 140.861 110.451 140.304 108.722C139.747 107.021 137.937 106.087 136.238 106.603C136.085 105.976 135.96 105.307 135.862 104.61C135.654 102.951 135.654 101.25 135.654 99.5912C135.654 98.8524 135.654 98.1136 135.626 97.3747C135.626 96.831 135.57 96.2734 135.445 95.7298C137.77 96.2595 140.026 97.1796 142.212 98.0857C143.562 98.6433 144.955 99.2288 146.361 99.7167C149.452 100.79 152.292 101.18 154.771 100.902C155.439 102.435 157.166 103.244 158.781 102.714C160.508 102.156 161.44 100.288 160.883 98.5597C160.327 96.8311 158.461 95.897 156.748 96.4546L156.818 96.4686Z" fill="#95BC8F"/>
<path d="M149.646 151.254C150.927 158.629 150.606 165.181 150.579 172.597C149.103 170.631 148.239 168.359 146.722 166.463C144.967 164.247 142.907 162.295 141.18 160.037C137.783 155.548 134.956 150.599 132.993 145.302C129.596 136.143 128.816 125.911 131.573 116.543C139.092 127.305 146.764 138.443 149.646 151.254Z" fill="#6F9969"/>
<path d="M162.986 180.167C162.889 180.417 162.805 180.668 162.708 180.919C160.452 186.844 157.863 192.908 158.169 199.251C156.512 194.72 154.604 190.887 154.061 186.063C153.504 181.073 153.379 176.026 154.214 171.063C154.952 166.658 156.303 162.351 158.225 158.308C158.949 156.775 165.186 148.912 164.95 147.978C167.637 158.838 166.829 169.656 162.986 180.167Z" fill="#6F9969"/>
<path d="M142.17 175.259C135.431 169.363 126.84 165.278 121.953 157.778C125.392 170.213 133.287 181.895 144.955 187.374C151.527 190.454 156.289 193.8 159.617 200.589C156.15 191.165 149.745 181.895 142.17 175.259Z" fill="#6F9969"/>
<path d="M131.797 185.561C132.09 188.586 134.067 192.183 135.223 194.985C136.601 198.317 137.283 202.011 139.442 204.966C141.878 208.312 145.805 210.138 149.425 212.132C159.742 217.805 170.589 225.04 175.003 236.667C166.189 215.617 150.483 198.414 131.797 185.561Z" fill="#6F9969"/>
<path d="M179.625 188.084C183.9 196.616 185.125 206.569 183.371 215.937C182.647 219.813 181.63 223.646 180.851 227.494C180.405 229.724 179.361 231.857 178.539 233.962C178.038 235.245 175.699 239.162 176.019 240.417C173.206 231.397 172.315 221.959 173.109 212.55C173.457 208.409 174.418 204.395 175.573 200.394C176.144 198.414 180.405 189.66 179.625 188.084Z" fill="#6F9969"/>
<path d="M112.443 193.201C114.044 199.223 114.323 205.608 116.55 211.421C118.472 216.453 121.897 220.886 126.186 224.12C128.358 225.765 130.14 226.281 132.618 227.006C135.793 227.954 138.48 229.808 141.349 231.369C133.51 217.527 121.103 206.514 112.443 193.187V193.201Z" fill="#6F9969"/>
<path d="M148.128 168.011C150.704 178.41 153.294 188.879 157.764 198.651C160.061 203.67 162.832 208.452 165.227 213.414C167.524 218.182 169.474 223.103 171.186 228.107C174.709 238.354 178.023 248.878 178.677 259.752C179.318 270.361 178.246 280.969 178.608 291.578C178.97 302.312 180.807 313.283 186.781 322.414C187.421 323.404 188.911 322.33 188.271 321.34C176.895 303.929 181.309 281.889 180.64 262.359C180.459 256.908 179.875 251.485 178.538 246.188C177.229 241.002 175.656 235.844 174.013 230.756C172.384 225.724 170.56 220.747 168.415 215.924C166.229 211.017 163.598 206.347 161.189 201.551C155.759 190.733 152.737 179.065 149.841 167.355C149.563 166.212 147.85 166.881 148.128 168.011Z" fill="#6F9969"/>
<path d="M180.878 266.708C183.607 262.317 187.13 258.483 190.277 254.399C191.906 252.28 193.465 250.077 194.816 247.763C196.292 245.226 197.489 242.522 198.603 239.803C203.184 228.679 205.315 216.816 207.292 205.008C208.392 198.414 209.478 191.807 211.023 185.283C211.302 184.126 209.478 183.819 209.213 184.962C206.484 196.505 205.189 208.326 202.683 219.924C200.232 231.258 196.654 242.814 189.636 252.196C186.197 256.797 182.257 261.034 179.207 265.928C178.581 266.931 180.266 267.684 180.878 266.694V266.708Z" fill="#6F9969"/>
<path d="M180.111 283.116C179.137 278.042 178.148 272.898 176.129 268.116C174.055 263.223 170.713 259.278 167.274 255.319C163.862 251.388 160.423 247.47 156.58 243.957C152.584 240.305 147.962 237.461 143.868 233.948C139.607 230.296 136.043 225.849 133.383 220.9C132.826 219.869 131.114 220.51 131.671 221.555C133.968 225.835 136.836 229.724 140.29 233.14C144.049 236.862 148.546 239.636 152.626 242.954C156.692 246.258 160.27 250.091 163.723 254.022C167.162 257.94 170.922 261.843 173.345 266.485C176.06 271.713 177.188 277.568 178.287 283.297C178.51 284.454 180.334 284.287 180.111 283.116Z" fill="#6F9969"/>
<path d="M128.553 238.479C130.6 240.793 132.633 243.107 134.679 245.421C137.2 248.279 139.929 251.262 143.591 252.294C145.164 252.74 146.807 252.782 148.45 252.768C150.956 252.74 153.546 252.015 155.969 252.001C158.754 252.001 161.928 253.395 164.616 254.106C161.984 253.409 159.589 248.056 157.417 246.369C155.509 244.878 153.031 244.418 150.803 243.581C143.591 240.835 136.281 238.925 128.553 238.479Z" fill="#6F9969"/>
<path d="M165.534 238.786C167.511 242.089 169.92 245.909 170.56 249.729C171.117 253.033 169.739 258.274 171.075 261.299C168.179 254.775 164.573 248.572 160.34 242.814C158.001 239.622 155.369 236.402 154.019 232.638C153.364 230.812 153.197 228.999 153.058 227.09C153.002 226.323 153.322 222.671 152.96 222.294C157.736 227.313 161.955 232.847 165.534 238.786Z" fill="#6F9969"/>
<path d="M213.864 156.51C213.043 157.583 214.895 165.947 214.909 167.732C214.923 171.691 214.574 175.65 213.864 179.553C212.514 187.011 209.423 193.828 208.156 201.328C207.348 189.967 202.127 179.734 206.554 168.248C208.211 163.926 211.066 160.19 213.864 156.51Z" fill="#6F9969"/>
<path d="M190.625 204.367C191.349 208.41 192.755 213.47 195.637 216.551C198.561 219.687 200.831 221.597 202.641 225.835C203.295 210.082 197.935 194.776 192.63 179.929C193.173 181.435 191.822 183.289 191.404 184.586C190.778 186.523 190.513 188.545 190.304 190.594C189.831 195.18 189.803 199.822 190.625 204.381V204.367Z" fill="#6F9969"/>
<path d="M224.739 205.022C222.692 212.55 219.086 219.632 214.296 225.765C211.874 228.86 209.117 231.537 206.234 234.199C205.009 235.342 204.216 236.681 202.837 237.671C201.918 238.326 200.971 238.939 199.997 239.525C199.565 239.789 197.449 240.64 197.323 241.044C200.776 229.697 206.972 220.273 215.438 211.965C218.223 209.232 221.105 206.43 224.725 205.022H224.739Z" fill="#6F9969"/>
<path d="M320.756 315.039C298.394 320.908 275.921 326.317 257.347 339.7C256.581 323.655 245.999 309.324 238.689 295.509C231.226 281.36 224.125 266.862 220.198 251.276C217.831 241.922 217.149 230.659 224.083 223.953C227.843 220.329 233.482 218.781 238.564 219.994C243.632 221.207 247.976 225.138 249.689 230.073C248.157 220.858 245.512 211.323 246.208 201.969C246.347 200.032 246.654 197.968 247.907 196.491C249.731 194.344 253.1 194.135 255.704 195.236C258.294 196.337 260.299 198.456 262.22 200.52C256.122 189.771 252.335 176.891 255.69 164.986C258.238 155.952 267.539 145.358 277.773 145.692C288.996 146.055 298.032 155.213 302.112 165.013C303.546 146.738 313.209 129.256 327.927 118.355C333.621 114.131 341.182 110.799 347.657 113.699C353.797 116.459 356.456 123.708 357.445 130.372C359.868 146.682 355.844 163.856 346.431 177.379C351.374 172.792 366.12 165.404 369.614 174.786C370.728 177.755 370.325 181.087 369.531 184.154C365.66 199.209 353.491 210.459 341.892 220.803C344.733 219.102 347.712 217.373 351.012 217.136C354.312 216.899 358.016 218.67 358.81 221.89C359.269 223.73 358.726 225.654 358.113 227.452C354.089 239.134 346.571 249.589 336.782 257.117C341.837 253.228 358.127 245.561 358.406 256.671C358.642 266.151 349.23 277.707 342.212 282.963C345.847 282.266 349.606 281.555 353.24 282.28C368.069 285.235 358.183 299.05 351.124 304.473C342.895 310.802 330.572 312.46 320.77 315.025L320.756 315.039Z" fill="#528C4D"/>
<path d="M357.432 188.656C336.936 198.847 318.181 212.41 302.113 228.721C299.106 231.774 296.209 234.924 293.397 238.158C298.409 226.309 303.673 214.557 309.089 202.889C314.366 191.528 319.782 180.25 325.241 168.986C325.505 169.028 325.811 168.958 326.076 168.708C334.583 161.096 342.088 152.411 348.34 142.848C349.162 141.58 347.296 140.158 346.474 141.426C341.072 149.679 334.75 157.29 327.621 164.093C329.404 160.427 331.2 156.761 332.996 153.094C333.664 151.728 331.478 150.85 330.824 152.202C325.324 163.452 319.824 174.716 314.436 186.021C316.622 170.366 320.562 155.004 326.201 140.213C326.744 138.805 324.572 137.913 324.029 139.321C317.471 156.51 313.169 174.493 311.233 192.796C305.733 204.465 300.359 216.202 295.207 228.024C293.884 219.311 292.172 210.668 290.069 202.123C289.846 194.274 291.253 186.44 294.177 179.149C294.734 177.741 292.561 176.849 292.004 178.257C289.93 183.415 288.621 188.823 288.05 194.302C285.07 183.456 281.478 172.764 277.273 162.323C276.702 160.915 274.558 161.849 275.115 163.257C280.253 176.026 284.458 189.144 287.744 202.499C287.744 202.764 287.744 203.029 287.744 203.294C287.758 203.656 287.911 203.921 288.134 204.074C289.679 210.487 290.974 216.969 292.074 223.479C286.825 212.871 278.693 203.851 270.743 195.152C269.726 194.037 267.875 195.487 268.891 196.602C278.485 207.085 288.329 217.987 292.951 231.704C293.035 231.969 293.188 232.122 293.355 232.234C291.907 235.579 290.487 238.939 289.081 242.313C281.019 261.676 273.681 281.373 267.513 301.434C266.301 295.356 264.561 289.431 262.458 283.618C260.3 271.713 260.063 259.571 261.748 247.596C261.957 246.09 259.632 245.812 259.423 247.317C258.156 256.337 257.975 265.467 258.838 274.515C254.02 263.376 248.103 252.656 242.157 242.173C241.419 240.877 239.261 241.797 239.999 243.107C245.485 252.796 250.985 262.693 255.58 272.926C248.771 267.043 241.545 261.69 233.887 256.978C232.606 256.197 231.185 258.065 232.466 258.846C241.475 264.394 249.927 270.765 257.724 277.902C257.724 277.902 257.724 277.902 257.738 277.902C261.539 287.075 264.505 296.554 266.009 306.424C263.238 315.792 260.69 325.23 258.504 334.765C254.369 352.79 251.431 371.08 249.941 389.523C249.815 391.028 252.155 391.321 252.266 389.801C254.536 361.6 260.272 333.845 268.306 306.759C268.306 306.759 268.306 306.731 268.32 306.731C270.492 301.155 274.516 296.471 278.457 292.052C282.592 287.424 286.881 282.949 291.364 278.655C291.768 278.265 292.186 277.902 292.589 277.526C293.508 277.805 294.191 278.585 294.984 279.101C295.778 279.617 296.641 280.021 297.463 280.509C299.384 281.624 301.278 282.767 303.157 283.938C306.986 286.322 310.746 288.804 314.45 291.383C315.689 292.247 317.109 290.379 315.87 289.515C311.915 286.768 307.892 284.12 303.798 281.596C301.849 280.398 299.885 279.185 297.88 278.07C297.198 277.693 296.544 277.219 295.889 276.773C306.555 275.56 317.109 279.268 327.733 279.91C329.237 280.007 329.529 277.665 328.011 277.582C317.318 276.926 306.736 273.288 295.987 274.403C303.547 267.531 311.512 261.104 319.88 255.249C325.784 251.123 331.868 247.275 338.106 243.693C339.401 242.954 338.482 240.779 337.173 241.532C315.021 254.218 294.97 270.333 277.83 289.25C275.616 291.689 273.375 294.199 271.356 296.861C271.648 295.927 271.94 294.993 272.247 294.059C277.649 277.4 283.859 261.034 290.543 244.864C290.71 244.794 290.877 244.696 291.016 244.515C295.165 239.455 299.565 234.617 304.174 229.975C304.383 230.017 304.605 230.003 304.842 229.878C309.312 227.536 314.366 227.396 319.309 227.285C325.213 227.159 331.102 227.048 337.006 226.922C338.51 226.895 338.148 224.566 336.658 224.594C330.587 224.72 324.517 224.831 318.432 224.957C314.937 225.04 311.386 225.222 308.017 226.128C318.209 216.384 329.39 207.685 341.378 200.227C346.864 196.811 352.531 193.675 358.323 190.789C359.674 190.12 358.741 187.959 357.391 188.628L357.432 188.656Z" fill="#295021"/>
<path d="M393.229 148.815C395.833 152.969 398.882 156.816 402.363 160.274C402.892 160.803 403.936 160.594 404.103 159.814C405.621 152.718 407.905 145.371 405.705 138.164C405.315 136.882 403.296 137.425 403.686 138.722C405.774 145.553 403.519 152.551 402.085 159.256L403.825 158.796C400.469 155.45 397.531 151.77 395.025 147.755C394.315 146.612 392.505 147.672 393.215 148.815H393.229Z" fill="white"/>
<path d="M394.844 201.467C386.726 191.751 380.99 178.633 383.19 166.101C384.638 157.82 386.322 149.609 387.45 141.147C388.105 136.254 388.759 131.347 389.414 126.454C389.734 124.043 392.087 116.473 391.015 114.424C401.123 133.759 422.538 143.782 433.552 162.811C444.273 181.324 442.018 209.804 442.491 230.84C427.161 224.441 411.469 217.805 399.425 206.36C397.837 204.855 396.292 203.21 394.83 201.467H394.844Z" fill="#6F9969"/>
<path d="M395.596 135.055C397.768 140.855 399.522 146.793 400.998 152.815C402.446 158.656 403.393 164.665 405.008 170.45C406.47 175.692 408.837 180.599 411.539 185.31C413.404 188.586 415.423 191.765 417.373 194.985C418.347 196.602 419.336 198.191 420.422 199.725C432.313 216.551 447.002 231.174 458.768 248.098C465.451 257.717 471.104 268.088 474.502 279.338C474.752 280.16 476.047 279.882 475.811 279.059C469.74 258.971 456.805 242.285 443.535 226.42C436.824 218.391 429.974 210.473 423.75 202.053C421.647 199.209 419.726 196.254 417.888 193.256C414.031 186.941 409.923 180.571 407.389 173.517C406.247 170.366 405.579 167.104 404.883 163.828C404.173 160.524 403.449 157.235 402.669 153.959C401.082 147.351 399.188 140.813 396.793 134.442C396.487 133.647 395.317 134.261 395.61 135.055H395.596Z" fill="#295021"/>
<path d="M415.133 210.919C423.055 214.516 430.992 218.098 438.914 221.695C439.36 221.904 439.917 221.388 439.778 220.928C436.311 209.413 434.013 197.578 432.955 185.603C432.885 184.753 431.577 185.032 431.646 185.882C432.704 197.857 435.002 209.692 438.469 221.207C438.761 220.956 439.04 220.691 439.332 220.44C431.41 216.858 423.473 213.261 415.55 209.678C414.771 209.33 414.353 210.598 415.133 210.947V210.919Z" fill="#295021"/>
<path d="M400.47 189.381C407.293 195.166 415.16 199.641 423.612 202.555C424.071 202.708 424.614 202.276 424.475 201.788C421.091 189.73 419.685 177.183 420.326 164.665C420.367 163.801 419.045 163.731 418.989 164.581C418.334 177.211 419.755 189.883 423.166 202.053C423.458 201.802 423.737 201.537 424.029 201.286C415.675 198.4 407.947 193.967 401.194 188.252C400.54 187.694 399.83 188.823 400.47 189.367V189.381Z" fill="#295021"/>
<path d="M390.585 160.106C391.796 164.484 394.107 168.582 397.366 171.774C400.401 174.744 404.592 176.082 408.463 177.56C408.894 177.727 409.34 177.406 409.34 176.96C409.312 166.881 410.245 156.816 412.181 146.933C412.348 146.096 411.081 145.678 410.913 146.515C408.95 156.524 407.976 166.686 408.003 176.891L408.881 176.291C405.233 174.897 401.209 173.67 398.354 170.882C395.263 167.871 393.035 163.996 391.894 159.841C391.671 159.019 390.362 159.284 390.585 160.12V160.106Z" fill="#295021"/>
<path d="M362.959 240.946C376.702 253.994 399.064 263.976 418.348 261.285C425.059 260.351 431.422 257.87 437.688 255.402C443.425 253.144 449.119 250.481 455.148 249.38C454.132 249.561 451.793 245.561 451.264 244.85C449.844 242.94 448.507 240.946 447.031 239.078C444.121 235.384 440.835 231.913 437.048 229.111C430.114 223.967 418.306 223.326 409.924 223.897C393.174 225.054 377.663 232.833 362.959 240.96V240.946Z" fill="#6F9969"/>
<path d="M463.92 253.019C454.967 248.125 445.596 243.915 435.78 241.1C430.74 239.65 425.518 238.493 420.325 237.74C415.089 236.973 409.784 236.903 404.507 237.029C398.367 237.168 392.24 237.559 386.1 237.503C385.251 237.503 385.167 238.827 386.016 238.841C396.64 238.925 407.292 237.642 417.888 238.785C422.998 239.343 428.136 240.444 433.093 241.755C438.05 243.065 442.909 244.738 447.657 246.69C452.976 248.864 458.128 251.401 463.168 254.148C463.92 254.552 464.644 253.437 463.892 253.032L463.92 253.019Z" fill="#295021"/>
<path d="M389.484 233.056C394.928 234.241 400.261 235.886 405.441 237.963C405.413 237.559 405.371 237.141 405.343 236.736C398.381 239.817 391.782 243.623 385.599 248.056C384.903 248.558 385.808 249.534 386.49 249.046C392.575 244.682 399.105 240.96 405.956 237.921C406.513 237.67 406.346 236.89 405.858 236.694C400.693 234.617 395.36 232.972 389.902 231.787C389.066 231.606 388.649 232.875 389.484 233.056Z" fill="#295021"/>
<path d="M404.05 251.457C409.508 246.076 416.094 241.95 423.334 239.427C423.794 239.274 424.058 238.73 423.682 238.326C419.825 234.088 415.133 230.728 409.912 228.386C409.132 228.038 408.714 229.306 409.494 229.655C414.52 231.899 419.004 235.161 422.708 239.218C422.819 238.855 422.944 238.479 423.056 238.117C415.593 240.709 408.784 244.905 403.145 250.468C402.532 251.067 403.423 252.057 404.036 251.457H404.05Z" fill="#295021"/>
<path d="M415.995 255.988C420.033 252.461 424.711 249.993 429.821 248.404C434.402 246.996 439.261 245.505 444.107 246.299C444.734 246.397 444.956 245.588 444.636 245.184C441.642 241.267 438.203 237.489 434.611 234.115C431.478 231.16 427.746 228.944 423.681 227.577C422.873 227.313 422.455 228.553 423.235 228.832C426.73 230.115 430.141 231.592 432.801 234.185C436.602 237.893 440.389 241.824 443.647 246.076C443.828 245.7 443.996 245.337 444.177 244.961C439.122 244.138 433.998 245.714 429.208 247.205C424.001 248.822 419.211 251.401 415.104 254.998C414.463 255.556 415.354 256.545 415.995 255.988Z" fill="#295021"/>
<path d="M458.533 213.958C459.396 217.987 456.82 221.96 452.796 222.824C448.772 223.688 444.804 221.109 443.941 217.081C443.077 213.052 445.653 209.079 449.677 208.214C453.701 207.35 457.669 209.929 458.533 213.958Z" fill="#528C4D"/>
<path d="M451.557 235.231C452.421 239.26 449.845 243.233 445.821 244.097C441.797 244.961 437.829 242.382 436.965 238.353C436.102 234.325 438.678 230.352 442.702 229.487C446.726 228.623 450.694 231.202 451.557 235.231Z" fill="#528C4D"/>
<path d="M479.628 221.611C480.491 225.64 477.915 229.613 473.891 230.477C469.867 231.342 465.899 228.763 465.036 224.734C464.172 220.705 466.748 216.732 470.772 215.868C474.796 215.004 478.764 217.582 479.628 221.611Z" fill="#528C4D"/>
<path d="M472.943 245.784C473.807 249.812 471.231 253.785 467.207 254.65C463.183 255.514 459.215 252.935 458.351 248.906C457.488 244.877 460.064 240.904 464.088 240.04C468.112 239.176 472.08 241.755 472.943 245.784Z" fill="#528C4D"/>
<path d="M10.6734 186.286C8.45954 192.532 5.67479 199.962 5.24315 206.639C4.83936 212.884 10.4089 215.212 15.2126 217.317C17.5935 218.363 23.163 221.43 24.2352 224.079C25.3908 226.964 21.3669 227.815 18.9302 227.41C17.5378 227.173 8.40385 225.11 8.3203 223.437C9.1975 239.789 13.6531 255.821 21.0745 270.36C24.0542 276.201 27.8832 276.243 33.397 274.598C39.8298 272.675 46.0537 270.43 51.7764 266.861C59.1838 262.247 66.2293 257.047 72.7874 251.29C76.7278 247.819 108.349 214.864 101.985 211.295C100.788 210.626 99.2982 210.919 97.9476 211.198C94.9958 211.797 91.9882 212.174 88.9668 212.327C87.9643 212.383 86.92 212.397 85.9871 211.992C85.0681 211.588 84.2884 210.668 84.3859 209.664C84.4694 208.856 85.082 208.2 85.7225 207.685C90.7072 203.698 98.6438 204.646 102.974 199.948C104.45 198.345 105.285 196.268 105.982 194.19C108.571 186.454 109.449 178.271 110.312 170.171C110.771 165.85 111.231 161.528 111.69 157.207C111.746 156.691 111.802 156.161 111.69 155.645C111.356 154.237 109.713 153.471 108.265 153.61C106.817 153.749 105.55 154.558 104.325 155.339C100.899 157.541 97.4742 159.744 94.0629 161.946C93.0047 162.63 91.8768 163.327 90.6237 163.424C89.3706 163.522 87.9503 162.797 87.7276 161.542C87.5883 160.761 87.9503 159.981 88.3402 159.298C93.7844 150.041 106.149 145.79 106.344 133.703C106.427 128.643 104.394 123.792 102.111 119.289C100.231 115.609 98.1565 112.026 95.9426 108.541C94.4806 106.227 92.2946 101.111 89.5237 100.107C86.7947 99.1173 83.4808 102.184 81.3783 103.536C70.1558 110.813 59.0864 118.243 49.6182 127.82C49.0891 128.364 48.5321 128.95 48.4208 129.702C48.2954 130.525 48.7271 131.306 49.1448 132.017C51.7485 136.505 54.046 141.426 57.5269 145.246C58.7522 146.584 59.9357 147.532 59.9079 149.609C59.8661 152.328 58.1535 152.843 56.3155 150.878C52.5422 146.835 49.2562 141.189 44.7867 137.955C44.2019 137.523 43.5057 137.147 42.7816 137.202C41.8487 137.286 41.1525 138.081 40.5678 138.819C36.4463 144.089 32.6312 149.595 29.1503 155.297C28.5794 156.245 27.9946 157.276 28.106 158.378C28.2591 159.786 29.4705 160.789 30.5426 161.696C35.3742 165.794 40.0387 171.105 42.8373 176.807C43.5335 178.229 44.1044 179.846 43.631 181.351C43.4639 181.881 43.1437 182.383 42.6702 182.676C41.7513 183.247 40.5538 182.899 39.5931 182.425C34.8312 180.097 31.7679 175.399 28.1895 171.482C27.368 170.589 26.4351 169.683 25.2377 169.488C22.6339 169.084 19.2087 172.736 17.6353 174.549C14.6835 177.978 12.1633 182.007 10.6595 186.286H10.6734Z" fill="#528C4D"/>
<path d="M69.8498 130.873C72.2308 136.756 74.7927 142.542 77.48 148.285C79.7496 138.373 81.7268 128.392 83.4951 118.383C83.7457 116.933 85.9317 117.602 85.6811 119.024C83.8432 129.41 81.7685 139.753 79.3876 150.041C82.1723 148.857 84.5672 146.556 86.8925 144.73C90.081 142.221 93.2835 139.712 96.472 137.202C97.6138 136.31 99.1872 137.955 98.0315 138.861C94.5923 141.566 91.1392 144.27 87.7001 146.975C84.9571 149.121 82.2002 151.686 78.7749 152.662C76.1016 163.926 73.0523 175.106 69.5017 186.133C76.8256 181.728 83.8293 176.793 90.4013 171.314C91.5152 170.38 93.0886 172.039 91.9607 172.973C84.6368 179.065 76.8256 184.544 68.5827 189.353C68.527 189.381 68.4713 189.381 68.4156 189.395C68.0954 190.343 67.803 191.291 67.4827 192.225C65.1575 199.042 62.6234 205.789 59.8664 212.438C59.9778 212.675 60.0892 212.912 60.2006 213.149C67.4131 209.999 74.6256 206.848 81.8242 203.698C83.1609 203.112 84.233 205.12 82.8824 205.705C75.3079 209.009 67.7334 212.327 60.1588 215.631C59.6437 215.854 58.9893 215.742 58.6829 215.24C55.2298 223.382 51.4426 231.383 47.2794 239.19C47.9616 238.939 48.7553 238.577 48.992 238.493C50.5654 237.963 52.1388 237.42 53.6982 236.848C57.4019 235.524 61.0778 234.102 64.7119 232.61C71.5067 229.808 78.1901 226.727 84.7343 223.382C86.0292 222.713 87.1013 224.72 85.7925 225.389C74.7231 231.049 63.2638 235.942 51.5122 240.012C50.0641 240.514 48.6021 241.044 47.1262 241.49C46.7085 241.616 46.2908 241.727 45.887 241.727C43.0048 247.011 39.9415 252.21 36.6973 257.298C36.753 257.298 36.8087 257.298 36.8644 257.298C37.7973 257.271 38.8137 256.95 39.7327 256.783C41.6542 256.448 43.5617 256.1 45.4832 255.765C49.5489 255.04 53.6286 254.315 57.6943 253.604C59.1285 253.353 59.6576 255.57 58.2095 255.821C53.5451 256.643 48.8667 257.48 44.2022 258.302C41.9326 258.706 39.6631 259.153 37.3796 259.515C36.6277 259.627 35.9036 259.668 35.2492 259.515C34.9847 259.905 34.734 260.31 34.4834 260.7C26.6165 272.591 17.7331 283.785 7.8194 294.031C6.80297 295.091 5.24351 293.418 6.25994 292.372C16.3964 281.903 25.4051 270.416 33.3695 258.233C32.2835 256.866 31.5455 255.04 30.7797 253.493C29.8607 251.625 28.9835 249.729 28.1899 247.805C26.5469 243.86 25.1823 239.817 24.0684 235.691C23.6925 234.283 25.9064 233.767 26.2823 235.175C28.2038 242.285 30.9189 249.171 34.4556 255.626C34.553 255.793 34.6366 255.946 34.734 256.1C38.0201 250.956 41.1251 245.686 44.063 240.319C43.8402 239.789 43.701 239.204 43.5617 238.674C43.1301 237.029 42.6984 235.384 42.2668 233.739C40.6656 227.508 39.1897 221.249 37.8251 214.962C36.2796 207.838 34.8872 200.687 33.6341 193.521C33.3834 192.086 35.5973 191.556 35.8479 193.006C38.4378 207.838 41.6542 222.559 45.4971 237.113C45.525 237.224 45.5528 237.364 45.5807 237.503C46.8477 235.105 48.1009 232.694 49.2983 230.254C52.1805 224.413 54.8539 218.489 57.3602 212.48C53.4476 203.977 50.3147 195.138 47.9895 186.063C47.6275 184.641 49.8413 184.126 50.2034 185.548C52.3058 193.786 55.0906 201.802 58.5298 209.553C61.4677 202.29 64.1689 194.943 66.6056 187.499C64.141 178.382 62.6651 169.028 62.2056 159.591C62.136 158.127 64.4056 158.197 64.4752 159.66C64.8651 167.676 66.0347 175.622 67.9005 183.415C70.3789 175.58 72.6345 167.662 74.6535 159.702C75.3218 157.095 75.9345 154.475 76.561 151.854C73.4282 145.288 70.4903 138.638 67.7751 131.905C67.2321 130.567 69.2371 129.479 69.7802 130.846L69.8498 130.873Z" fill="#264F21"/>
<path d="M95.6651 40.9164C95.3449 40.6097 94.8436 40.6236 94.5373 40.9443C94.0639 41.4182 90.7083 42.1013 89.2184 42.1849C88.3273 42.2407 87.4362 42.2546 86.5729 42.2686C84.5122 42.2964 82.3679 42.3243 80.168 42.8959C78.0237 43.4535 76.0048 44.3736 73.9858 45.7258C72.8301 46.4925 71.7719 47.3568 70.6998 48.2908C70.9504 47.8865 71.1871 47.4683 71.4378 47.064C71.6884 46.6458 71.9669 46.1998 72.2175 45.7816C72.5656 45.8652 72.9276 45.7119 73.0947 45.3912C74.2086 43.3141 75.8934 41.6552 77.6756 39.8848C78.3161 39.2575 78.9566 38.6162 79.5692 37.961C84.5957 32.6219 87.4222 25.9026 88.4526 16.7996C88.7032 14.597 88.7868 12.3526 88.8703 10.1779C88.9817 7.12497 89.0931 3.97443 89.6918 0.963317C89.7754 0.531167 89.5108 0.112967 89.0653 0.0153842C88.6336 -0.0682578 88.2159 0.196612 88.1324 0.628763C88.021 0.93545 87.0881 1.73006 86.6564 2.12039C86.3083 2.41314 86.002 2.69196 85.8349 2.87318C84.721 4.07205 83.7603 5.18725 82.897 6.24672C80.8085 8.82568 79.1933 11.2374 77.9541 13.663C77.0351 15.4474 76.4225 17.3153 76.0744 19.3925C75.7402 21.4277 75.6984 23.4909 75.6706 25.4844C75.6427 27.0736 75.6149 28.7186 75.4339 30.3078C75.0719 33.291 74.2225 35.9676 73.3175 38.8114C72.8998 40.1357 72.496 41.4879 72.12 42.8819C71.4099 44.0251 70.7276 45.1542 70.0593 46.2555C68.6391 48.6254 67.2467 50.9255 65.6037 53.2117C63.9468 54.9125 62.3595 56.6829 60.8418 58.5091C61.7607 56.2786 62.624 54.0063 63.181 51.6365C64.3088 46.8549 64.643 42.5752 64.2252 38.5604C63.9746 36.1627 63.4316 33.7789 62.9025 31.4788C62.1924 28.3701 61.4544 25.1359 61.4823 21.9436C61.4823 21.5811 61.2316 21.2465 60.8975 21.1629C60.5494 21.0653 60.1734 21.2326 60.0063 21.5393C57.2216 26.4881 54.0609 32.1061 53.1419 38.2259C52.5154 42.4498 52.9331 46.9804 54.3672 51.3298C54.6735 52.2499 54.9938 53.1281 55.314 54.0064C56.3583 56.8362 57.3191 59.5267 57.2494 62.7051C53.1419 67.0684 49.0205 71.5712 45.0244 76.2133L45.1079 75.8648C46.2497 70.7905 46.18 65.4653 44.8851 60.4886C44.0219 57.115 42.6156 53.9227 41.265 50.828L35.7929 38.3095C35.6537 37.9889 35.3195 37.8077 34.9853 37.8355C34.6372 37.8634 34.3588 38.1144 34.2892 38.4629C33.3006 43.0353 32.5487 47.7053 32.0474 52.3614C31.6576 56.0138 31.4905 59.0806 32.0057 62.1475C32.674 66.1623 34.5119 69.8565 36.0435 72.6306C37.1992 74.7356 38.5359 76.9243 40.3599 78.7505C40.7776 79.1687 41.3067 79.6426 41.9054 79.8796C36.8511 85.9437 32.0196 92.2587 27.6614 98.8385C29.0956 94.0988 30.5158 89.1918 30.0563 84.006C29.5968 78.8202 28.0513 73.8714 26.4918 69.2571C25.4893 66.2739 24.2919 63.2348 21.6185 61.6038C21.4236 61.4923 21.2008 61.4644 20.978 61.5202C20.7692 61.5899 20.5882 61.7433 20.4907 61.9384C16.8844 69.4523 15.2971 76.06 15.6174 82.124C15.8959 87.1983 17.5946 91.3386 19.9198 95.1861C17.3022 94.7679 14.6427 95.5207 12.3314 96.371C6.63655 98.4482 1.31767 101.376 -3.49996 105.07C-3.75058 105.265 -3.86197 105.572 -3.79235 105.878C-3.73666 106.129 -3.55565 106.338 -3.31895 106.436C-3.27717 106.45 -3.2354 106.464 -3.17971 106.478C1.42906 107.454 6.19099 108.471 11.0086 108.611C14.1554 108.694 16.592 108.36 18.6667 107.523C20.9084 106.631 22.8299 105.126 24.5704 103.662C14.1554 120.655 7.1378 139.433 7.45805 160.455C7.45805 160.789 7.66691 161.068 7.94538 161.18C8.04285 161.222 8.15424 161.235 8.26563 161.235C8.71119 161.235 9.05928 160.873 9.04536 160.427C8.80865 144.549 12.8465 129.953 19.3907 116.417C20.7692 118.731 22.4818 121.269 24.9185 123.527C27.926 126.343 31.2259 128.88 34.7069 131.082C34.7904 131.124 41.3903 134.874 44.4674 136.143C45.2054 136.45 45.7484 136.603 45.9294 136.547C46.1661 136.463 46.3471 136.268 46.4307 136.031C47.8927 131.543 45.2054 127.137 43.4788 124.907C40.7915 121.45 37.1853 118.662 33.0778 116.849C28.7336 114.926 24.7792 113.936 20.7413 113.699C22.3843 110.507 24.1526 107.384 26.0324 104.317C26.1437 104.317 26.2551 104.317 26.3805 104.289C29.5133 103.23 32.0892 103.467 35.0689 103.745C35.9322 103.829 36.8094 103.913 37.7422 103.969C41.7105 104.206 45.7206 103.885 49.6749 103.021C53.6153 102.156 57.3887 100.762 60.9114 98.8803C62.6379 97.9603 64.2949 96.9147 65.8682 95.7856C66.105 95.6043 66.5087 95.228 67.2049 94.5728C67.929 93.8897 69.4188 92.4817 69.8783 92.2308C70.2264 92.1889 70.5188 91.9101 70.5606 91.5477C70.6302 91.1155 70.3099 90.7113 69.8922 90.6416C62.8746 89.61 54.7153 88.6342 46.8623 89.9306C42.5738 90.6416 38.6473 92.0077 35.1942 93.9873C33.1752 95.1582 31.4348 96.7474 29.8057 98.4342C33.6626 92.7047 37.8815 87.1983 42.2814 81.8731C43.089 82.0961 43.8826 82.3331 44.6763 82.5701C46.4585 83.0998 48.2965 83.6435 50.1622 84.0478C56.8874 85.4697 63.5012 82.9744 70.2542 80.0609C74.7377 78.1232 79.2768 75.8648 81.1148 71.4318C81.2262 71.153 81.1844 70.8324 80.9895 70.6093C80.7945 70.3863 80.4882 70.2747 80.1958 70.3584C75.9908 71.3899 71.5213 71.3621 67.191 71.3342C65.0607 71.3342 62.8607 71.3063 60.7025 71.4178C55.9824 71.6548 52.0976 72.5609 48.8952 74.1501C52.0002 70.6372 55.1609 67.1939 58.3216 63.8482C58.5026 63.7646 58.6697 63.6252 58.7532 63.43C58.7532 63.4161 58.7671 63.3882 58.7811 63.3743C59.4633 62.6494 60.1595 61.9105 60.8418 61.1996C61.6076 60.7674 63.181 60.3492 64.0999 60.1122C64.6151 59.9728 65.0746 59.8613 65.3948 59.7498C67.7897 58.9412 70.3099 58.4952 72.7466 58.063C77.5224 57.2266 82.4515 56.3483 86.6982 52.7796C88.8146 50.9952 90.4576 48.7508 92.0589 46.5761C93.1867 45.0288 94.3563 43.4396 95.679 42.0455C95.679 42.0455 95.693 42.0316 95.7069 42.0177C95.9854 41.697 95.9575 41.2091 95.6512 40.9164H95.6651ZM42.2118 125.897C43.3674 127.388 45.832 131.069 45.1218 134.749C42.9358 133.745 36.4334 130.302 35.5562 129.744C32.1449 127.583 28.9285 125.102 26.0045 122.37C24.0273 120.53 22.5514 118.466 21.3122 116.501C26.4779 118.522 30.8221 122.328 34.9993 126.036C37.2549 128.03 39.5802 130.093 42.0308 131.877C42.0725 131.905 42.1143 131.933 42.1561 131.947C42.4067 132.044 42.6991 131.975 42.8662 131.752C43.0611 131.487 43.0054 131.11 42.7269 130.915C40.3181 129.159 38.0068 127.123 35.779 125.144C31.5183 121.366 27.0906 117.491 21.7299 115.4C25.1969 115.734 28.6361 116.654 32.4094 118.327C36.2802 120.042 39.6637 122.663 42.1978 125.911L42.2118 125.897ZM77.2579 25.4983C77.2857 23.5606 77.3275 21.5672 77.6478 19.6434C77.968 17.7336 78.525 16.005 79.3604 14.374C80.5439 12.0599 82.1034 9.71785 84.1223 7.23647C84.9577 6.20489 85.9046 5.11756 86.9906 3.94657C87.1299 3.79323 87.3944 3.57017 87.6868 3.31924C87.6868 3.31924 87.7007 3.31927 87.7146 3.30533C87.4362 5.59154 87.3526 7.89169 87.283 10.1361C87.1995 12.269 87.1299 14.4855 86.8792 16.6323C85.8767 25.3729 83.1894 31.8133 78.4136 36.8876C77.8148 37.5289 77.1883 38.1423 76.5617 38.7696C76.4503 38.8811 76.3529 38.9926 76.2415 39.0902C78.6781 35.0335 80.5439 31.0048 81.7692 27.0736C82.3818 25.122 82.5489 23.1006 82.716 21.1211C82.9806 18.0821 83.2312 15.2104 84.9299 12.6175C85.1109 12.3387 85.0413 11.9762 84.7628 11.795C84.4983 11.6138 84.1223 11.6835 83.9413 11.9623C82.0755 14.8061 81.797 17.9566 81.5325 21.0235C81.3654 22.9333 81.1983 24.8989 80.6274 26.7111C79.3882 30.6702 77.4807 34.7408 74.9744 38.8532C75.8098 36.2045 76.6592 33.4583 77.0073 30.489C77.2022 28.8301 77.23 27.1433 77.2579 25.5123V25.4983ZM55.8571 50.828C54.5065 46.7156 54.1027 42.4359 54.6875 38.4629C55.4115 33.5838 57.695 28.9556 60.0203 24.7316C60.2709 27.1433 60.8139 29.5132 61.343 31.8273C61.8582 34.0856 62.3873 36.4136 62.6379 38.7277C63.0417 42.5613 62.7076 46.6737 61.6354 51.274C60.9949 53.9645 59.9367 56.5993 58.8507 59.1503C59.6861 53.7415 59.7696 49.183 59.1152 44.5687C58.5165 40.3448 58.1266 36.2742 59.8532 32.7892C59.9924 32.4964 59.881 32.1339 59.5886 31.9945C59.2962 31.8551 58.9342 31.9667 58.795 32.2594C56.9292 36.0512 57.3469 40.5121 57.9456 44.736C58.5026 48.6254 58.5026 52.4869 57.9735 56.892C57.6254 55.7489 57.2216 54.6197 56.8039 53.4766C56.4976 52.6263 56.1773 51.7619 55.871 50.8558L55.8571 50.828ZM37.4081 71.85C35.9461 69.1874 34.1778 65.6605 33.5373 61.8826C33.0639 58.9831 33.217 56.0556 33.593 52.5287C33.9968 48.7648 34.5676 44.987 35.3056 41.2509L39.7751 51.4692C41.1118 54.5082 42.4763 57.6448 43.3118 60.8929C44.537 65.6326 44.6067 70.679 43.5206 75.5163L43.3953 76.1157C43.3118 76.5339 43.1864 77.0776 43.0611 77.5516C42.7826 76.2272 42.5459 74.889 42.3371 73.5786C41.9333 71.0833 41.5156 68.5043 40.6941 65.9951L40.1789 64.4616C39.065 61.1438 37.8954 57.7284 38.1878 54.2294C38.2157 53.8948 37.965 53.616 37.6448 53.5881C37.3106 53.5602 37.0321 53.8112 37.0043 54.1318C36.698 57.8678 37.8954 61.4226 39.0511 64.838L39.5523 66.3575C40.346 68.7692 40.7498 71.3063 41.1396 73.7459C41.3624 75.1539 41.627 76.6037 41.9333 78.0535C41.7941 77.9419 41.6409 77.8025 41.4599 77.6213C39.7751 75.9345 38.508 73.8574 37.4081 71.85ZM17.1629 82.0543C16.8705 76.4921 18.2768 70.4141 21.4793 63.4997C23.2198 64.9635 24.1527 67.3891 24.9463 69.7729C26.464 74.3035 27.9817 79.1408 28.4272 84.1593C28.8728 89.2476 27.4526 93.9454 25.9349 98.9361C25.907 99.0476 25.8653 99.1591 25.8374 99.2567C24.459 91.8404 23.6375 84.2708 23.4704 76.7431C23.4704 76.4085 23.1919 76.1575 22.8577 76.1575C22.5236 76.1575 22.2729 76.4364 22.2729 76.7709C22.4539 84.3266 23.2615 91.9101 24.64 99.3543C20.8109 94.1824 17.5249 88.9827 17.1629 82.0543ZM18.054 106.06C16.1743 106.798 13.9465 107.119 11.0225 107.035C6.92895 106.924 2.83536 106.143 -1.14684 105.307C3.15561 102.198 7.86184 99.7167 12.8465 97.8905C15.2136 97.0262 17.9566 96.2456 20.4489 96.9566C20.7274 97.0263 20.8109 97.1099 20.8388 97.1378C20.9363 97.4305 21.1869 97.6396 21.4793 97.6814C22.1615 98.6851 22.8856 99.6749 23.6096 100.651C18.3464 99.9955 12.9858 100.497 7.93146 102.17C7.62514 102.282 7.44413 102.616 7.55552 102.923C7.61121 103.09 7.73652 103.23 7.88969 103.285C8.015 103.341 8.16816 103.341 8.3074 103.299C13.4174 101.599 18.8477 101.139 24.1526 101.905C22.2729 103.508 20.3236 105.14 18.0401 106.046L18.054 106.06ZM35.9739 95.4091C39.2599 93.5133 43.0054 92.2168 47.099 91.5337C54.0191 90.3906 61.2316 91.0876 67.6644 91.9659C67.2467 92.3423 66.7176 92.8302 66.091 93.4296C65.5898 93.9036 65.0746 94.3915 64.9075 94.517C63.4037 95.6043 61.8025 96.608 60.1456 97.5002C56.7482 99.3124 53.1002 100.651 49.3129 101.487C45.4978 102.324 41.627 102.63 37.8119 102.407C36.8929 102.351 36.0296 102.268 35.1803 102.184C33.3702 102.017 31.6297 101.864 29.7778 102.017C37.0878 98.7409 45.0801 96.845 53.0584 96.5244C53.3926 96.5244 53.6432 96.2316 53.6293 95.8971C53.6153 95.5625 53.3369 95.3116 53.0027 95.3255C45.1079 95.6461 37.1992 97.4723 29.9171 100.637C31.769 98.6572 33.7044 96.7056 35.9461 95.4091H35.9739ZM60.7861 73.0349C62.9025 72.9234 65.0746 72.9373 67.1771 72.9513C71.034 72.9792 75.0023 72.9931 78.8731 72.2821C76.9237 75.2654 73.2618 77.0498 69.6137 78.625C63.1114 81.441 56.7482 83.8526 50.4825 82.5143C48.6863 82.1379 46.8762 81.5943 45.1218 81.0785C44.6206 80.9251 44.1193 80.7858 43.6181 80.6324C45.3446 79.5033 47.5585 79.2662 49.5218 79.1687C51.1091 79.085 52.7242 79.0571 54.3394 79.0293C59.7975 78.9317 65.4366 78.8202 70.5327 76.6594C70.839 76.534 70.9783 76.1854 70.853 75.8788C70.7276 75.5721 70.3796 75.4327 70.0732 75.5581C65.186 77.6352 59.6582 77.7328 54.3254 77.8444C52.6964 77.8722 51.0812 77.9001 49.4661 77.9837C48.1433 78.0534 46.7927 78.1928 45.5256 78.5274C46.2636 77.7886 47.0155 77.1055 47.8787 76.5618C51.1787 74.4568 55.3976 73.3137 60.7861 73.0349ZM90.7779 45.6561C89.1766 47.8447 87.659 49.9218 85.6818 51.5807C81.7553 54.8846 77.244 55.6792 72.4681 56.5156C69.9758 56.9617 67.3859 57.4078 64.8797 58.2581C64.7404 58.3 64.5594 58.3557 64.3784 58.4115C66.0075 57.3381 67.8594 56.5574 69.6973 55.8046L70.3239 55.5537C75.4478 53.4208 80.4743 50.8977 85.2362 48.0399C85.5147 47.8726 85.6122 47.5102 85.4451 47.2174C85.278 46.9386 84.916 46.841 84.6236 47.0083C79.9034 49.8242 74.9465 52.3196 69.8644 54.4385L69.2378 54.7034C67.8176 55.2889 66.3834 55.8883 65.0328 56.6271C65.6594 55.8604 66.2303 55.0937 66.7733 54.3409C67.2467 53.853 67.7062 53.3651 68.1796 52.8911C70.5327 50.5631 72.5238 48.6532 74.8352 47.1059C76.7009 45.8512 78.5667 45.0009 80.53 44.499C82.5629 43.9832 84.5122 43.9414 86.5729 43.9135C87.464 43.8996 88.3691 43.8856 89.288 43.8299C89.6083 43.8159 91.0703 43.6487 92.5323 43.328C91.9196 44.1087 91.3487 44.9033 90.7779 45.684V45.6561Z" fill="#6F9969"/>
<path d="M296.779 131.194C290.012 134.177 283.467 136.868 283.37 136.352C282.298 130.316 280.432 124.349 278.357 118.564C276.45 113.239 272.83 107.914 275.308 102.101C275.656 101.278 276.185 100.47 276.993 100.051C278.065 99.5077 279.43 99.8004 280.404 100.525C281.379 101.25 282.033 102.31 282.576 103.397C283.913 106.046 284.762 108.945 285.069 111.901C284.943 107.621 284.818 103.341 285.041 99.0616C285.138 97.1657 285.319 95.228 286.196 93.5412C286.948 92.1053 288.577 90.8368 290.109 91.3805C291.376 91.8265 291.975 93.2484 292.365 94.5449C293.339 97.793 293.896 101.181 294.022 104.568C293.994 98.95 295.623 93.3321 298.658 88.6063C299.814 86.808 301.262 85.0515 303.253 84.2709C305.286 83.4623 307.89 83.6157 309.073 85.7904C310.145 87.7559 309.185 91.1156 308.697 93.1788C307.305 98.978 304.2 104.303 300.287 108.764C302.794 107.3 305.467 106.157 308.252 105.349C309.992 104.847 312.276 104.666 313.223 106.213C313.793 107.147 313.598 108.388 313.014 109.308C312.429 110.228 311.524 110.897 310.633 111.51C307.583 113.601 304.381 115.441 301.025 117.003C303.156 116.431 305.328 115.846 307.542 115.902C309.755 115.943 312.053 116.71 313.473 118.397C313.933 118.954 314.309 119.61 314.378 120.335C314.559 122.091 313 123.527 311.468 124.419C310.299 125.088 303.434 128.281 296.792 131.208L296.779 131.194Z" fill="#6F9969"/>
<path d="M96.3184 235.719C95.1766 235.719 94.1184 236.137 93.283 236.96C92.4615 237.768 92.016 238.842 92.002 239.985C91.9881 242.355 93.8957 244.292 96.2627 244.306C97.3627 244.306 98.393 243.916 99.2006 243.163C99.2285 243.135 99.2702 243.093 99.2981 243.066C100.12 242.257 100.565 241.184 100.579 240.04C100.579 238.897 100.147 237.81 99.3398 237.001C98.5323 236.179 97.4601 235.733 96.3184 235.719Z" fill="#6F9969"/>
<path d="M110.283 223.897C109.141 223.897 108.069 224.316 107.248 225.138C106.426 225.947 105.981 227.02 105.967 228.163C105.953 230.533 107.86 232.471 110.227 232.485C111.327 232.485 112.358 232.094 113.165 231.342C113.193 231.314 113.235 231.272 113.263 231.244C114.084 230.435 114.53 229.362 114.544 228.219C114.544 227.076 114.112 225.988 113.304 225.18C112.497 224.371 111.425 223.911 110.283 223.897Z" fill="#6F9969"/>
<path d="M110.019 242.87C109.197 243.679 108.752 244.752 108.738 245.895C108.724 248.265 110.631 250.203 112.998 250.217C114.098 250.217 115.129 249.827 115.936 249.074C115.964 249.046 116.006 249.004 116.034 248.976C116.855 248.168 117.301 247.094 117.315 245.951C117.315 244.808 116.883 243.721 116.075 242.912C115.268 242.09 114.196 241.644 113.054 241.63C111.912 241.63 110.854 242.062 110.019 242.87Z" fill="#6F9969"/>
</svg>
