<svg width="311" height="127" viewBox="0 0 311 127" fill="none" xmlns="http://www.w3.org/2000/svg">
<path d="M184.028 124.722V125.788H173.522V108.845C173.522 106.916 173.015 102.893 170.319 102.893C167.788 102.893 166.864 106.205 166.661 108.49V121.118C166.661 122.336 167.37 123.605 168.281 124.379L168.788 124.735V125.801H156.143V124.735L156.598 124.379C157.611 123.618 158.269 122.349 158.269 121.118V105.698C158.269 104.479 157.611 103.16 156.598 102.436L156.143 102.081V101.015L164.573 99.4411H166.661V103.007C168.129 100.609 170.572 98.8827 173.965 98.8827C177.927 98.8827 180.256 101.167 181.268 104.276C182.686 100.964 185.584 98.8827 189.242 98.8827C194.268 98.8827 197.166 102.703 197.166 108.35V121.536C197.166 122.856 197.622 123.364 198.584 123.364C198.584 123.364 199.394 123.364 199.799 122.653C199.799 123.922 197.976 126.321 194.116 126.321C190.761 126.321 188.787 124.494 188.787 120.47V108.871C188.787 105.254 187.521 102.918 185.534 102.918C183.547 102.918 181.876 105.571 181.926 109.531V121.13C181.926 122.349 182.534 123.618 183.547 124.392L184.002 124.747L184.028 124.722Z" fill="#749E8A"/>
<path d="M224.367 108.794V121.524C224.367 122.844 224.772 123.351 225.785 123.351C225.785 123.351 226.544 123.351 226.949 122.64C226.949 123.91 225.127 126.308 221.317 126.308C218.57 126.308 216.646 125.039 216.089 122.437C214.418 124.988 211.671 126.308 208.634 126.308C203.963 126.308 200.355 123.25 200.355 118.668C200.355 109.302 215.228 110.317 215.583 106.104C214.57 102.741 211.874 101.624 210.102 101.624C209.393 101.624 208.887 101.776 208.634 101.979C209.494 102.69 210.102 103.807 210.102 105.089C210.102 107.221 208.33 109.01 206.089 109.01C203.849 109.01 202.077 107.233 202.077 104.885C202.077 101.37 205.887 98.8825 212.279 98.8825C217.962 98.8825 224.354 100.862 224.354 108.807L224.367 108.794ZM215.937 109.86C213.406 111.688 208.786 112.564 208.786 116.929C208.786 119.48 210.355 121.054 211.988 121.054C213.811 121.054 215.646 119.074 215.95 116.066V109.86H215.937Z" fill="#749E8A"/>
<path d="M255.379 124.722V125.788H244.873V108.845C244.873 106.916 244.367 102.893 241.671 102.893C239.139 102.893 238.215 106.205 238.013 108.49V121.118C238.013 122.336 238.722 123.605 239.633 124.379L240.139 124.735V125.801H227.494V124.735L227.95 124.379C228.962 123.618 229.621 122.349 229.621 121.118V105.698C229.621 104.479 228.962 103.159 227.95 102.436L227.494 102.081V101.015L235.924 99.441H238V103.007C239.468 100.609 241.911 98.8825 245.304 98.8825C249.265 98.8825 251.594 101.167 252.607 104.276C254.025 100.964 256.923 98.8825 260.581 98.8825C265.607 98.8825 268.505 102.703 268.505 108.35V121.536C268.505 122.856 268.961 123.364 269.923 123.364C269.923 123.364 270.733 123.364 271.138 122.653C271.138 123.922 269.315 126.321 265.455 126.321C262.1 126.321 260.126 124.493 260.126 120.47V108.871C260.126 105.254 258.86 102.918 256.873 102.918C254.885 102.918 253.215 105.571 253.265 109.53V121.13C253.265 122.349 253.873 123.618 254.885 124.392L255.341 124.747L255.379 124.722Z" fill="#749E8A"/>
<path d="M307.846 113.934C307.846 113.782 307.846 110.723 305.871 109.708C306.782 112.411 305.112 115.102 302.011 115.102C299.479 115.102 297.846 113.274 297.846 110.876C297.846 108.134 300.074 106.091 303.226 106.091C307.39 106.091 310.985 109.556 310.985 114.645C310.985 119.277 307.985 126.854 298.302 126.854C292.922 126.854 288.758 124.519 287.34 121.105C285.72 124.57 283.075 126.296 279.72 126.296C275.303 126.296 271.695 123.237 271.695 118.655C271.695 109.289 286.568 110.305 286.923 106.091C285.91 102.728 283.214 101.611 281.442 101.611C280.733 101.611 280.227 101.763 279.973 101.967C280.834 102.677 281.442 103.794 281.442 105.076C281.442 107.208 279.67 108.997 277.429 108.997C275.189 108.997 273.417 107.221 273.417 104.873C273.417 101.357 277.227 98.8699 283.619 98.8699C289.302 98.8699 295.694 100.85 295.694 108.794V117.45C295.694 120.965 297.365 123.453 300.719 123.453C305.289 123.453 307.82 118.82 307.82 113.934H307.846ZM287.29 109.86C284.758 111.688 280.138 112.513 280.138 116.929C280.138 119.48 281.708 121.054 283.34 121.054C285.163 121.054 286.998 119.074 287.302 116.066V109.86H287.29Z" fill="#749E8A"/>
<path d="M40.4388 89.4022L41.3122 88.793C42.9704 87.4858 44.0969 85.303 44.0969 83.2089V36.0357C44.0969 35.16 44.4387 33.1548 39.6667 33.1548C31.3126 33.1548 25.5787 39.2593 25.5787 49.0188C25.5787 49.2853 25.5787 54.5141 29.0595 56.2528C27.414 51.722 30.2747 47.1024 35.5783 47.1024C39.9325 47.1024 42.7046 50.1483 42.7046 54.4253C42.7046 59.2225 39.1351 62.4461 33.9201 62.4461C26.7938 62.4461 20.1738 56.6082 20.1738 46.7471C20.1738 35.9342 28.2621 28.3449 40.4388 28.0022H73.9185C86.7028 28.0022 94.4366 34.7158 94.4366 45.7953C94.4366 56.8747 86.2598 64.1087 73.9185 64.1087H58.4381V83.2089C58.4381 85.303 59.6532 87.4858 61.3114 88.793L62.0962 89.4022V91.2297H40.4388V89.4022ZM58.4381 33.4213V58.7022H67.5643C75.1336 58.7022 79.9942 53.8161 79.9942 45.8841C79.9942 37.9521 75.3868 33.4213 67.5643 33.4213H58.4381Z" fill="#337B5B"/>
<path d="M116.347 89.4022V91.2298H94.6895V89.4022L95.4742 88.793C97.2083 87.4858 98.3475 85.303 98.3475 83.2089V38.739C98.3475 36.6449 97.221 34.3732 95.4742 33.1548L94.6895 32.4568V30.7181L109.119 28.0149H112.689V83.2089C112.689 85.303 113.904 87.4858 115.473 88.793L116.347 89.4022Z" fill="#337B5B"/>
<path d="M233.444 40.8203C230.494 43.587 226.33 45.4907 221.507 46.1252C221.242 46.176 220.963 46.2014 220.685 46.2395C220.558 46.2395 220.431 46.2521 220.305 46.2648C219.938 46.2902 219.583 46.341 219.178 46.341H219.115C219.001 46.341 218.887 46.3537 218.786 46.3664C218.786 46.3664 218.786 46.3537 218.786 46.341H215.115V51.7094H219.178V82.1429C219.178 88.9961 222.545 92.1181 228.254 92.1181C234.823 92.1181 237.937 88.0443 237.937 85.8741C237.241 87.0797 235.861 87.0797 235.861 87.0797C234.216 87.0797 233.444 86.2167 233.444 83.9577V51.7094H238.545V46.341H233.444V40.833V40.8203Z" fill="#337B5B"/>
<path d="M213.81 43.1174C214.202 43.1428 214.607 43.1682 215 43.1809C215.126 43.1809 215.253 43.1936 215.392 43.1936C215.671 43.1936 215.949 43.1936 216.215 43.1809C221.088 43.0921 225.442 41.6706 228.67 39.2466C231.379 37.2287 233.303 34.5255 234.062 31.34C235.721 24.3979 236.885 17.3289 238.379 9.77766C229.569 9.67613 220.519 9.65074 213.633 16.6055C207.101 23.2176 208.317 31.6192 209.519 40.9219C212.721 34.627 215.38 29.1952 220.936 25.9589C218.481 31.5811 216.025 37.2033 213.468 43.0794C213.468 43.0794 213.468 43.092 213.468 43.1047C213.582 43.1047 213.696 43.1047 213.797 43.1174H213.81Z" fill="#337B5B"/>
<path d="M144.7 85.2268C144.877 86.0264 145.118 87.0036 145.434 87.6509C146.004 87.5239 146.574 87.359 147.143 87.232C147.548 87.1432 147.953 87.0797 148.358 87.0036C151.029 86.496 153.738 86.2041 156.434 85.836C157.105 85.7472 157.776 85.6583 158.459 85.5822C158.662 85.5568 158.864 85.5441 159.067 85.5187C158.94 85.0872 158.877 84.5669 158.877 83.9196V62.1162C158.877 48.5112 147.915 45.11 138.182 45.11C127.22 45.11 120.701 49.3869 120.701 55.4025C120.701 59.4129 123.739 62.4715 127.574 62.4715C131.41 62.4715 134.447 59.4256 134.447 55.7579C134.447 53.575 133.41 51.6586 131.929 50.4403C132.359 50.0976 133.232 49.8311 134.447 49.8311C137.485 49.8311 142.105 51.7475 143.84 57.5093C143.232 64.7432 117.752 63.0045 117.752 79.0462C117.752 86.2548 122.967 91.2425 130.03 92.0166C134.017 90.7094 138.042 89.5165 142.105 88.4758C143.08 87.6255 143.966 86.3817 144.713 85.2395L144.7 85.2268ZM132.169 76.0638C132.169 68.5633 140.08 67.0784 144.434 63.9437V74.5789C143.915 79.7189 140.776 83.1201 137.65 83.1201C134.865 83.1201 132.169 80.4169 132.169 76.0638Z" fill="#337B5B"/>
<path d="M213.57 87.0544C211.836 87.0544 211.14 86.1787 211.14 83.9196V61.342C211.14 51.6586 206.102 45.1227 196.786 45.1227C190.609 45.1227 185.394 48.0924 182.268 52.9658V46.0745H178.698L164.256 48.7777V50.6052L165.041 51.2144C166.775 52.4328 167.914 54.7045 167.914 56.7986V83.2216C167.914 83.8689 167.8 84.5288 167.597 85.1634C169.471 85.2649 171.332 85.4553 173.192 85.7853C174.243 85.9756 175.306 86.0391 176.344 86.2802C176.787 86.3817 177.23 86.5086 177.66 86.6229C180.597 87.4097 183.369 88.5139 185.913 90.0114V89.4022L185.04 88.7931C183.47 87.4859 182.255 85.303 182.255 83.2089V61.4943C182.863 55.7452 185.825 51.9886 189.913 51.9886C194.255 51.9886 196.698 55.8213 196.698 62.1923V82.0667C196.698 88.958 200.178 92.0928 205.912 92.0928C212.431 92.0928 215.646 87.9935 215.646 85.8106C214.861 87.029 213.558 87.029 213.558 87.029L213.57 87.0544Z" fill="#337B5B"/>
<path d="M176.344 90.8871C175.306 90.646 174.243 90.5698 173.193 90.3921C171.332 90.0622 169.471 89.8591 167.598 89.7703C165.99 89.6941 164.383 89.6814 162.775 89.7703C162.611 89.7703 162.446 89.8084 162.282 89.8084C161.206 89.8845 160.13 89.9987 159.067 90.1256C158.864 90.151 158.662 90.1637 158.459 90.1891C157.788 90.2779 157.105 90.3541 156.434 90.4429C153.738 90.811 151.029 91.0902 148.358 91.6105C147.953 91.6866 147.548 91.7501 147.143 91.8389C146.573 91.9659 146.004 92.1182 145.434 92.2578C144.32 92.5243 143.206 92.7908 142.093 93.07C138.029 94.1107 134.004 95.291 130.017 96.6108C127.359 97.4865 124.714 98.3876 122.081 99.3775C116.701 101.383 111.309 103.337 105.879 105.152C98.6893 107.551 91.4618 109.797 84.0697 111.46C79.7534 112.424 75.4118 113.325 71.0575 114.163C68.8931 114.582 66.7033 114.861 64.5262 115.077C61.7921 115.343 59.058 115.483 56.324 115.686C54.8557 115.8 53.3747 116.054 51.9064 116.041C49.3496 116.003 46.7674 115.94 44.2232 115.635C36.7678 114.747 29.4896 113.084 22.6544 109.721C18.5027 107.69 14.794 105 11.7688 101.408C8.65501 97.7023 6.81964 93.4 6.30068 88.4758C6.07284 86.2802 6.02221 84.1227 6.5032 81.9779C7.54113 77.3329 9.97141 73.7159 14.0092 71.33C15.9332 70.1878 18.0217 69.7182 20.2368 69.9086C22.1608 70.0735 23.6291 71.8503 23.5785 73.8428C23.5405 75.7211 23.5405 77.5994 23.5531 79.4777C23.5531 80.7976 24.2493 81.7748 25.2619 82.4348C26.5024 83.247 27.9074 83.5897 29.363 83.3358C32.0844 82.8663 33.5401 80.9499 34.1603 78.3736C35.3881 73.2717 33.2236 68.4618 28.7428 65.9489C26.3758 64.6163 23.8189 64.0071 21.1482 63.6645C19.0217 63.398 16.9458 63.4487 14.8573 63.8929C11.465 64.6163 8.65501 66.3931 6.35131 69.0075C3.16156 72.6245 0.959121 76.8126 0.224974 81.6606C-0.180073 84.2877 0.00979291 86.9909 0.41484 89.6561C1.0857 94.0472 2.54134 98.1338 4.8577 101.878C7.06014 105.444 9.90812 108.35 13.2751 110.774C16.9964 113.452 21.0469 115.406 25.3379 116.866C29.0339 118.122 32.8059 119.023 36.6539 119.607C40.0715 120.128 43.489 120.546 46.9572 120.47C48.5521 120.432 50.1597 120.8 51.7545 120.749C54.7797 120.635 57.8049 120.356 60.8301 120.128C62.5389 120.001 64.2603 119.886 65.9691 119.671C67.7792 119.442 69.5892 119.087 71.3993 118.782C72.8929 118.529 74.4118 118.338 75.8928 118.021C79.6648 117.221 83.4368 116.409 87.1961 115.521C95.6515 113.516 103.93 110.838 112.069 107.792C117.423 105.787 122.676 103.502 127.992 101.433C134.409 98.9333 140.89 96.5855 147.548 94.8975C148.953 94.5422 150.358 94.1995 151.776 93.9076C153.573 93.5396 155.421 93.438 157.206 93.0446C159.003 92.6512 160.826 92.537 162.636 92.4862C163.547 92.4608 164.459 92.4481 165.37 92.4354C165.636 92.4354 165.902 92.3974 166.168 92.3593C166.535 92.3085 166.902 92.2578 167.269 92.2451C168.13 92.2197 168.978 92.2451 169.838 92.2704C170.332 92.2958 170.826 92.4354 171.332 92.4227C175.155 92.3466 178.8 93.3111 182.357 94.631C183.306 94.9864 184.23 95.4052 185.142 95.862C186.876 96.7251 188.521 97.7404 190.027 98.9841C193.47 101.802 194.66 105.355 196.242 109.67C196.331 109.924 196.457 110.165 196.559 110.419C195.698 106.853 195.521 103.667 193.268 100.913C191.116 98.2861 188.635 96.2428 185.914 94.631C183.369 93.1334 180.61 92.0293 177.661 91.2425C177.218 91.1282 176.787 91.0013 176.344 90.8998V90.8871Z" fill="#749E8A"/>
<path d="M199.609 40.7949C199.103 40.8965 198.609 40.9853 198.115 41.0615C197.951 41.0868 197.786 41.1249 197.622 41.1503C197.267 41.2011 196.926 41.2264 196.571 41.2518C190.381 41.8991 184.622 40.7569 180.154 38.1932C176.407 36.0484 172.395 32.6599 170.673 26.6189C167.889 16.834 168.281 8.50854 157.383 3.03863C167.99 -1.55558 185.926 -0.65451 195.736 7.1125C205.052 14.4861 207.09 24.9944 204.697 37.3556C199.66 29.8551 195.445 23.3699 187.888 20.121C191.875 26.8854 195.85 33.6498 200.014 40.6934C200.014 40.6934 200.014 40.7061 200.027 40.7188C199.887 40.7442 199.748 40.7696 199.609 40.7949Z" fill="#337B5B"/>
</svg>
